<?xml version="1.0" encoding="UTF-8" standalone="no"?>
<!-- Created with Inkscape (http://www.inkscape.org/) -->

<svg
   version="1.1"
   id="svg693"
   width="439.52573"
   height="235.5518"
   viewBox="0 0 439.52572 235.5518"
   sodipodi:docname="CNX_Econ_C25_022.svg"
   inkscape:version="1.3 (1:1.3+202307231459+0e150ed6c4)"
   xmlns:inkscape="http://www.inkscape.org/namespaces/inkscape"
   xmlns:sodipodi="http://sodipodi.sourceforge.net/DTD/sodipodi-0.dtd"
   xmlns="http://www.w3.org/2000/svg"
   xmlns:svg="http://www.w3.org/2000/svg">
  <defs
     id="defs697" />
  <sodipodi:namedview
     id="namedview695"
     pagecolor="#ffffff"
     bordercolor="#000000"
     borderopacity="0.25"
     inkscape:showpageshadow="2"
     inkscape:pageopacity="0.0"
     inkscape:pagecheckerboard="0"
     inkscape:deskcolor="#d1d1d1"
     showgrid="false"
     inkscape:zoom="2"
     inkscape:cx="146.5"
     inkscape:cy="93.25"
     inkscape:window-width="1848"
     inkscape:window-height="1043"
     inkscape:window-x="1438"
     inkscape:window-y="0"
     inkscape:window-maximized="1"
     inkscape:current-layer="g701"
     showguides="true">
    <inkscape:page
       x="0"
       y="0"
       id="page699"
       width="439.52573"
       height="235.5518"
       margin="0"
       bleed="0" />
    <sodipodi:guide
       position="234.19334,42.367298"
       orientation="0,-1"
       id="guide23781"
       inkscape:locked="false" />
    <sodipodi:guide
       position="68.740753,27.860342"
       orientation="0,-1"
       id="guide23783"
       inkscape:locked="false" />
    <sodipodi:guide
       position="66.170753,27.860342"
       orientation="1,0"
       id="guide23830"
       inkscape:locked="false" />
    <sodipodi:guide
       position="37.411591,17.580342"
       orientation="1,0"
       id="guide23832"
       inkscape:locked="false" />
    <sodipodi:guide
       position="455.2106,42.367298"
       orientation="1,0"
       id="guide23838"
       inkscape:locked="false" />
    <sodipodi:guide
       position="73.429622,223.5673"
       orientation="0,-1"
       id="guide23840"
       inkscape:locked="false" />
    <sodipodi:guide
       position="76.450752,39.538838"
       orientation="1,0"
       id="guide6139"
       inkscape:locked="false" />
    <sodipodi:guide
       position="72.32705,33.00034"
       orientation="0,-1"
       id="guide6141"
       inkscape:locked="false" />
    <sodipodi:guide
       position="78.460876,38.140335"
       orientation="0,-1"
       id="guide6143"
       inkscape:locked="false" />
    <sodipodi:guide
       position="71.310753,33.00034"
       orientation="1,0"
       id="guide6145"
       inkscape:locked="false" />
    <sodipodi:guide
       position="47.69159,18.417918"
       orientation="1,0"
       id="guide1"
       inkscape:locked="false" />
    <sodipodi:guide
       position="79.441425,19.933259"
       orientation="0,-1"
       id="guide2"
       inkscape:locked="false" />
    <sodipodi:guide
       position="42.551591,9.653261"
       orientation="0,-1"
       id="guide3"
       inkscape:locked="false" />
  </sodipodi:namedview>
  <g
     id="g701"
     inkscape:groupmode="layer"
     inkscape:label="Page 1"
     transform="matrix(1.3333333,0,0,-1.3333333,-2.9613634,224.72985)">
    <g
       id="g5">
      <path
         d="m 59.809088,20.599084 v -3.9653"
         style="fill:none;stroke:#3f60b6;stroke-width:0.5;stroke-linecap:butt;stroke-linejoin:miter;stroke-miterlimit:4;stroke-dasharray:none;stroke-opacity:1"
         id="path719" />
      <path
         d="m 98.021226,20.599084 v -3.9653"
         style="fill:none;stroke:#3f60b6;stroke-width:0.5;stroke-linecap:butt;stroke-linejoin:miter;stroke-miterlimit:4;stroke-dasharray:none;stroke-opacity:1"
         id="path721" />
      <path
         d="m 136.25598,20.599084 v -3.9653"
         style="fill:none;stroke:#3f60b6;stroke-width:0.5;stroke-linecap:butt;stroke-linejoin:miter;stroke-miterlimit:4;stroke-dasharray:none;stroke-opacity:1"
         id="path723" />
      <path
         d="m 174.49074,20.599084 v -3.9653"
         style="fill:none;stroke:#3f60b6;stroke-width:0.5;stroke-linecap:butt;stroke-linejoin:miter;stroke-miterlimit:4;stroke-dasharray:none;stroke-opacity:1"
         id="path751" />
      <path
         d="m 212.7255,20.599084 v -3.9653"
         style="fill:none;stroke:#3f60b6;stroke-width:0.5;stroke-linecap:butt;stroke-linejoin:miter;stroke-miterlimit:4;stroke-dasharray:none;stroke-opacity:1"
         id="path753" />
      <path
         d="m 250.96026,20.599084 v -3.9653"
         style="fill:none;stroke:#3f60b6;stroke-width:0.5;stroke-linecap:butt;stroke-linejoin:miter;stroke-miterlimit:4;stroke-dasharray:none;stroke-opacity:1"
         id="path755" />
      <path
         d="m 289.19501,20.599084 v -3.9653"
         style="fill:none;stroke:#3f60b6;stroke-width:0.5;stroke-linecap:butt;stroke-linejoin:miter;stroke-miterlimit:4;stroke-dasharray:none;stroke-opacity:1"
         id="path757" />
      <path
         d="m 327.39649,20.599084 v -3.9653"
         style="fill:none;stroke:#3f60b6;stroke-width:0.5;stroke-linecap:butt;stroke-linejoin:miter;stroke-miterlimit:4;stroke-dasharray:none;stroke-opacity:1"
         id="path759" />
      <path
         d="m 55.704088,20.738838 h 4.2285"
         style="fill:none;stroke:#3f60b6;stroke-width:0.5;stroke-linecap:butt;stroke-linejoin:miter;stroke-miterlimit:4;stroke-dasharray:none;stroke-opacity:1"
         id="path761" />
      <path
         d="m 55.704088,46.321671 h 4.2285"
         style="fill:none;stroke:#3f60b6;stroke-width:0.5;stroke-linecap:butt;stroke-linejoin:miter;stroke-miterlimit:4;stroke-dasharray:none;stroke-opacity:1"
         id="path763" />
      <path
         d="m 55.704088,71.904503 h 4.2285"
         style="fill:none;stroke:#3f60b6;stroke-width:0.5;stroke-linecap:butt;stroke-linejoin:miter;stroke-miterlimit:4;stroke-dasharray:none;stroke-opacity:1"
         id="path765" />
      <path
         d="m 55.704088,97.487331 h 4.2285"
         style="fill:none;stroke:#3f60b6;stroke-width:0.5;stroke-linecap:butt;stroke-linejoin:miter;stroke-miterlimit:4;stroke-dasharray:none;stroke-opacity:1"
         id="path767" />
      <path
         d="m 55.704088,123.07017 h 4.2285"
         style="fill:none;stroke:#3f60b6;stroke-width:0.5;stroke-linecap:butt;stroke-linejoin:miter;stroke-miterlimit:4;stroke-dasharray:none;stroke-opacity:1"
         id="path769" />
      <path
         d="m 55.704088,148.653 h 4.2285"
         style="fill:none;stroke:#3f60b6;stroke-width:0.5;stroke-linecap:butt;stroke-linejoin:miter;stroke-miterlimit:4;stroke-dasharray:none;stroke-opacity:1"
         id="path771" />
      <path
         d="M 327.64649,20.738838 H 59.807948 V 148.90288"
         style="fill:none;stroke:#3f60b6;stroke-width:0.500118;stroke-linecap:butt;stroke-linejoin:miter;stroke-miterlimit:4;stroke-dasharray:none;stroke-opacity:1"
         id="path773" />
      <path
         d="m 69.278669,73.465901 c 0.7777,-0.7774 0.7777,-2.0508 0,-2.8281 -0.7778,-0.7774 -2.0504,-0.7774 -2.8282,0 -0.7777,0.7773 -0.7777,2.0507 0,2.8281 0.7778,0.7773 2.0504,0.7773 2.8282,0"
         style="fill:#3f60b6;fill-opacity:1;fill-rule:nonzero;stroke:none;stroke-width:0.1"
         id="path775" />
      <path
         d="m 76.449639,98.338781 c 0.7782,-0.777 0.7782,-2.051 0,-2.828 -0.7777,-0.777 -2.05,-0.777 -2.8281,0 -0.7777,0.777 -0.7777,2.051 0,2.828 0.7781,0.777 2.0504,0.777 2.8281,0"
         style="fill:#3f60b6;fill-opacity:1;fill-rule:nonzero;stroke:none;stroke-width:0.1"
         id="path777" />
      <path
         d="m 84.308077,114.54452 c 0.7781,-0.778 0.7781,-2.05 0,-2.828 -0.7778,-0.778 -2.05,-0.778 -2.8282,0 -0.7777,0.778 -0.7777,2.05 0,2.828 0.7782,0.778 2.0504,0.778 2.8282,0"
         style="fill:#3f60b6;fill-opacity:1;fill-rule:nonzero;stroke:none;stroke-width:0.1"
         id="path779" />
      <path
         d="m 91.877866,122.00761 c 0.7777,-0.778 0.7777,-2.05 0,-2.828 -0.7778,-0.778 -2.0504,-0.778 -2.8281,0 -0.7782,0.778 -0.7782,2.05 0,2.828 0.7777,0.778 2.0503,0.778 2.8281,0"
         style="fill:#3f60b6;fill-opacity:1;fill-rule:nonzero;stroke:none;stroke-width:0.1"
         id="path781" />
      <path
         d="m 98.948655,126.049 c 0.7777,-0.778 0.7777,-2.05 0,-2.828 -0.7782,-0.778 -2.0504,-0.778 -2.8282,0 -0.7781,0.778 -0.7781,2.05 0,2.828 0.7778,0.778 2.05,0.778 2.8282,0"
         style="fill:#3f60b6;fill-opacity:1;fill-rule:nonzero;stroke:none;stroke-width:0.1"
         id="path783" />
      <path
         d="m 107.20877,128.637 c 0.777,-0.778 0.777,-2.051 0,-2.829 -0.778,-0.777 -2.051,-0.777 -2.829,0 -0.777,0.778 -0.777,2.051 0,2.829 0.778,0.777 2.051,0.777 2.829,0"
         style="fill:#3f60b6;fill-opacity:1;fill-rule:nonzero;stroke:none;stroke-width:0.1"
         id="path785" />
      <path
         d="m 115.04477,129.91625 c 0.778,-0.778 0.778,-2.05 0,-2.828 -0.777,-0.778 -2.05,-0.778 -2.828,0 -0.777,0.778 -0.777,2.05 0,2.828 0.778,0.778 2.051,0.778 2.828,0"
         style="fill:#3f60b6;fill-opacity:1;fill-rule:nonzero;stroke:none;stroke-width:0.1"
         id="path787" />
      <path
         d="m 122.49377,130.63375 c 0.778,-0.778 0.778,-2.05 0,-2.828 -0.778,-0.778 -2.05,-0.778 -2.828,0 -0.778,0.778 -0.778,2.05 0,2.828 0.778,0.778 2.05,0.778 2.828,0"
         style="fill:#3f60b6;fill-opacity:1;fill-rule:nonzero;stroke:none;stroke-width:0.1"
         id="path789" />
      <path
         d="m 129.94277,130.93276 c 0.778,-0.778 0.778,-2.05 0,-2.828 -0.778,-0.778 -2.05,-0.778 -2.828,0 -0.778,0.778 -0.778,2.05 0,2.828 0.778,0.778 2.05,0.778 2.828,0"
         style="fill:#3f60b6;fill-opacity:1;fill-rule:nonzero;stroke:none;stroke-width:0.1"
         id="path791" />
      <path
         d="m 137.39177,131.19426 c 0.778,-0.778 0.778,-2.05 0,-2.828 -0.778,-0.778 -2.051,-0.778 -2.828,0 -0.778,0.778 -0.778,2.05 0,2.828 0.777,0.778 2.05,0.778 2.828,0"
         style="fill:#3f60b6;fill-opacity:1;fill-rule:nonzero;stroke:none;stroke-width:0.1"
         id="path793" />
      <path
         d="m 145.32877,131.50325 c 0.778,-0.777 0.778,-2.05 0,-2.828 -0.778,-0.778 -2.05,-0.778 -2.828,0 -0.778,0.778 -0.778,2.051 0,2.828 0.778,0.778 2.05,0.778 2.828,0"
         style="fill:#3f60b6;fill-opacity:1;fill-rule:nonzero;stroke:none;stroke-width:0.1"
         id="path795" />
      <path
         d="m 152.81367,131.50325 c 0.778,-0.778 0.778,-2.05 0,-2.828 -0.77699,-0.778 -2.05,-0.778 -2.828,0 -0.77799,0.778 -0.77799,2.05 0,2.828 0.778,0.778 2.051,0.778 2.828,0"
         style="fill:#3f60b6;fill-opacity:1;fill-rule:nonzero;stroke:none;stroke-width:0.1"
         id="path797" />
      <path
         d="m 160.29858,131.50363 c 0.778,-0.778 0.778,-2.051 0,-2.828 -0.778,-0.778 -2.05,-0.778 -2.828,0 -0.778,0.777 -0.778,2.05 0,2.828 0.778,0.777 2.05,0.777 2.828,0"
         style="fill:#3f60b6;fill-opacity:1;fill-rule:nonzero;stroke:none;stroke-width:0.1"
         id="path799" />
      <path
         d="m 168.23509,131.50363 c 0.778,-0.778 0.778,-2.051 0,-2.828 -0.778,-0.778 -2.05,-0.778 -2.828,0 -0.778,0.777 -0.778,2.05 0,2.828 0.778,0.777 2.05,0.777 2.828,0"
         style="fill:#3f60b6;fill-opacity:1;fill-rule:nonzero;stroke:none;stroke-width:0.1"
         id="path801" />
      <path
         d="m 175.36877,131.044 c 0.777,-0.778 0.777,-2.05 0,-2.828 -0.778,-0.778 -2.051,-0.778 -2.828,0 -0.779,0.778 -0.779,2.05 0,2.828 0.777,0.778 2.05,0.778 2.828,0"
         style="fill:#3f60b6;fill-opacity:1;fill-rule:nonzero;stroke:none;stroke-width:0.1"
         id="path803" />
      <path
         d="m 183.30577,131.044 c 0.778,-0.777 0.778,-2.05 0,-2.828 -0.777,-0.778 -2.051,-0.778 -2.828,0 -0.777,0.778 -0.777,2.051 0,2.828 0.777,0.778 2.051,0.778 2.828,0"
         style="fill:#3f60b6;fill-opacity:1;fill-rule:nonzero;stroke:none;stroke-width:0.1"
         id="path805" />
      <path
         d="m 191.12077,131.044 c 0.777,-0.778 0.777,-2.05 0,-2.828 -0.778,-0.778 -2.051,-0.778 -2.828,0 -0.778,0.778 -0.778,2.05 0,2.828 0.777,0.778 2.05,0.778 2.828,0"
         style="fill:#3f60b6;fill-opacity:1;fill-rule:nonzero;stroke:none;stroke-width:0.1"
         id="path807" />
      <path
         d="m 198.69177,131.044 c 0.777,-0.778 0.777,-2.05 0,-2.828 -0.777,-0.778 -2.051,-0.778 -2.828,0 -0.778,0.778 -0.778,2.05 0,2.828 0.777,0.778 2.051,0.778 2.828,0"
         style="fill:#3f60b6;fill-opacity:1;fill-rule:nonzero;stroke:none;stroke-width:0.1"
         id="path809" />
      <path
         d="m 206.26277,131.044 c 0.778,-0.778 0.778,-2.05 0,-2.828 -0.777,-0.778 -2.051,-0.778 -2.828,0 -0.777,0.778 -0.777,2.05 0,2.828 0.777,0.778 2.051,0.778 2.828,0"
         style="fill:#3f60b6;fill-opacity:1;fill-rule:nonzero;stroke:none;stroke-width:0.1"
         id="path811" />
      <path
         d="m 213.95577,131.044 c 0.777,-0.778 0.777,-2.05 0,-2.828 -0.778,-0.778 -2.051,-0.778 -2.829,0 -0.777,0.778 -0.777,2.05 0,2.828 0.778,0.778 2.051,0.778 2.829,0"
         style="fill:#3f60b6;fill-opacity:1;fill-rule:nonzero;stroke:none;stroke-width:0.1"
         id="path813" />
      <path
         d="m 221.28277,131.044 c 0.777,-0.778 0.777,-2.05 0,-2.828 -0.778,-0.778 -2.051,-0.778 -2.828,0 -0.778,0.778 -0.778,2.05 0,2.828 0.777,0.778 2.05,0.778 2.828,0"
         style="fill:#3f60b6;fill-opacity:1;fill-rule:nonzero;stroke:none;stroke-width:0.1"
         id="path815" />
      <path
         d="m 228.97477,131.044 c 0.777,-0.778 0.777,-2.05 0,-2.828 -0.777,-0.778 -2.051,-0.778 -2.828,0 -0.777,0.778 -0.777,2.05 0,2.828 0.777,0.778 2.051,0.778 2.828,0"
         style="fill:#3f60b6;fill-opacity:1;fill-rule:nonzero;stroke:none;stroke-width:0.1"
         id="path817" />
      <path
         d="m 236.42377,131.044 c 0.778,-0.778 0.778,-2.05 0,-2.828 -0.777,-0.778 -2.05,-0.778 -2.828,0 -0.777,0.778 -0.777,2.05 0,2.828 0.778,0.778 2.051,0.778 2.828,0"
         style="fill:#3f60b6;fill-opacity:1;fill-rule:nonzero;stroke:none;stroke-width:0.1"
         id="path819" />
      <path
         d="m 244.23977,131.044 c 0.777,-0.778 0.777,-2.05 0,-2.828 -0.778,-0.778 -2.051,-0.778 -2.828,0 -0.778,0.778 -0.778,2.05 0,2.828 0.777,0.778 2.05,0.778 2.828,0"
         style="fill:#3f60b6;fill-opacity:1;fill-rule:nonzero;stroke:none;stroke-width:0.1"
         id="path821" />
      <path
         d="m 252.05477,131.044 c 0.778,-0.778 0.778,-2.05 0,-2.828 -0.777,-0.778 -2.051,-0.778 -2.828,0 -0.777,0.778 -0.777,2.05 0,2.828 0.777,0.778 2.051,0.778 2.828,0"
         style="fill:#3f60b6;fill-opacity:1;fill-rule:nonzero;stroke:none;stroke-width:0.1"
         id="path823" />
      <path
         d="m 259.62677,131.044 c 0.777,-0.778 0.777,-2.05 0,-2.828 -0.778,-0.778 -2.051,-0.778 -2.829,0 -0.777,0.778 -0.777,2.05 0,2.828 0.778,0.778 2.051,0.778 2.829,0"
         style="fill:#3f60b6;fill-opacity:1;fill-rule:nonzero;stroke:none;stroke-width:0.1"
         id="path825" />
      <path
         d="m 267.19777,131.044 c 0.777,-0.778 0.777,-2.05 0,-2.828 -0.778,-0.778 -2.051,-0.778 -2.828,0 -0.778,0.778 -0.778,2.05 0,2.828 0.777,0.778 2.05,0.778 2.828,0"
         style="fill:#3f60b6;fill-opacity:1;fill-rule:nonzero;stroke:none;stroke-width:0.1"
         id="path827" />
      <path
         d="m 275.01177,131.044 c 0.778,-0.778 0.778,-2.05 0,-2.828 -0.777,-0.778 -2.051,-0.778 -2.828,0 -0.777,0.778 -0.777,2.05 0,2.828 0.777,0.778 2.051,0.778 2.828,0"
         style="fill:#3f60b6;fill-opacity:1;fill-rule:nonzero;stroke:none;stroke-width:0.1"
         id="path829" />
      <path
         d="m 282.33877,131.044 c 0.778,-0.778 0.778,-2.05 0,-2.828 -0.777,-0.778 -2.05,-0.778 -2.828,0 -0.777,0.778 -0.777,2.05 0,2.828 0.778,0.778 2.051,0.778 2.828,0"
         style="fill:#3f60b6;fill-opacity:1;fill-rule:nonzero;stroke:none;stroke-width:0.1"
         id="path831" />
      <path
         d="m 290.27714,131.044 c 0.777,-0.778 0.777,-2.05 0,-2.828 -0.777,-0.778 -2.051,-0.778 -2.828,0 -0.778,0.778 -0.778,2.05 0,2.828 0.777,0.778 2.051,0.778 2.828,0"
         style="fill:#3f60b6;fill-opacity:1;fill-rule:nonzero;stroke:none;stroke-width:0.1"
         id="path833" />
      <path
         d="m 59.807969,20.738901 c 0,0 7.3363,77.2451 26.0976,95.535099 18.140201,17.685 26.414201,13.355 202.957201,13.355"
         style="fill:none;stroke:#3f60b6;stroke-width:0.5;stroke-linecap:butt;stroke-linejoin:miter;stroke-miterlimit:4;stroke-dasharray:none;stroke-opacity:1"
         id="path835" />
      <g
         id="g20138"
         transform="translate(14.190788,-10.198362)">
        <text
           xml:space="preserve"
           transform="matrix(1,0,0,-1,33.5703,28.1172)"
           style="font-variant:normal;font-weight:normal;font-size:8px;font-family:ArialMT;-inkscape-font-specification:ArialMT;writing-mode:lr-tb;fill:#3f60b6;fill-opacity:1;fill-rule:nonzero;stroke:none"
           id="text20142"><tspan
             x="0"
             y="0"
             id="tspan20140">0</tspan></text>
      </g>
      <text
         xml:space="preserve"
         transform="scale(1,-1)"
         style="font-variant:normal;font-weight:normal;font-size:8px;font-family:ArialMT;-inkscape-font-specification:ArialMT;writing-mode:lr-tb;fill:#3f60b6;fill-opacity:1;fill-rule:nonzero;stroke:none"
         id="text8085-3-06-4-0-2-76-8"
         x="179.21156"
         y="8.0031843"><tspan
           sodipodi:role="line"
           id="tspan8083-2-2-30-6-6-73-9"
           x="179.21156"
           y="8.0031843"
           style="font-style:normal;font-variant:normal;font-weight:bold;font-stretch:normal;font-family:sans-serif;-inkscape-font-specification:'sans-serif Bold'">Runda</tspan></text>
      <text
         xml:space="preserve"
         transform="scale(1,-1)"
         style="font-variant:normal;font-weight:normal;font-size:8px;font-family:ArialMT;-inkscape-font-specification:ArialMT;writing-mode:lr-tb;fill:#3f60b6;fill-opacity:1;fill-rule:nonzero;stroke:none"
         id="text8085-3-06-4-0-2-76-8-0-0-06-7-0"
         x="37.110809"
         y="-145.74089"><tspan
           sodipodi:role="line"
           id="tspan8083-2-2-30-6-6-73-9-5-3-4-1-4"
           x="37.110809"
           y="-145.74089"
           style="font-style:normal;font-variant:normal;font-weight:normal;font-stretch:normal;font-family:sans-serif;-inkscape-font-specification:sans-serif">250</tspan></text>
      <text
         xml:space="preserve"
         transform="scale(1,-1)"
         style="font-variant:normal;font-weight:normal;font-size:8px;font-family:ArialMT;-inkscape-font-specification:ArialMT;writing-mode:lr-tb;fill:#3f60b6;fill-opacity:1;fill-rule:nonzero;stroke:none"
         id="text8085-3-06-4-0-2-76-8-0-0-06-7-08"
         x="37.110809"
         y="-120.15806"><tspan
           sodipodi:role="line"
           id="tspan8083-2-2-30-6-6-73-9-5-3-4-1-5"
           x="37.110809"
           y="-120.15806"
           style="font-style:normal;font-variant:normal;font-weight:normal;font-stretch:normal;font-family:sans-serif;-inkscape-font-specification:sans-serif">200</tspan></text>
      <text
         xml:space="preserve"
         transform="scale(1,-1)"
         style="font-variant:normal;font-weight:normal;font-size:8px;font-family:ArialMT;-inkscape-font-specification:ArialMT;writing-mode:lr-tb;fill:#3f60b6;fill-opacity:1;fill-rule:nonzero;stroke:none"
         id="text8085-3-06-4-0-2-76-8-0-0-06-7-1"
         x="37.110809"
         y="-94.575233"><tspan
           sodipodi:role="line"
           id="tspan8083-2-2-30-6-6-73-9-5-3-4-1-6"
           x="37.110809"
           y="-94.575233"
           style="font-style:normal;font-variant:normal;font-weight:normal;font-stretch:normal;font-family:sans-serif;-inkscape-font-specification:sans-serif">150</tspan></text>
      <text
         xml:space="preserve"
         transform="scale(1,-1)"
         style="font-variant:normal;font-weight:normal;font-size:8px;font-family:ArialMT;-inkscape-font-specification:ArialMT;writing-mode:lr-tb;fill:#3f60b6;fill-opacity:1;fill-rule:nonzero;stroke:none"
         id="text8085-3-06-4-0-2-76-8-0-0-06-7-8"
         x="245.92706"
         y="-6.946753"><tspan
           sodipodi:role="line"
           id="tspan8083-2-2-30-6-6-73-9-5-3-4-1-0"
           x="245.92706"
           y="-6.946753"
           style="font-style:normal;font-variant:normal;font-weight:normal;font-stretch:normal;font-family:sans-serif;-inkscape-font-specification:sans-serif">25</tspan></text>
      <text
         xml:space="preserve"
         transform="scale(1,-1)"
         style="font-variant:normal;font-weight:normal;font-size:8px;font-family:ArialMT;-inkscape-font-specification:ArialMT;writing-mode:lr-tb;fill:#3f60b6;fill-opacity:1;fill-rule:nonzero;stroke:none"
         id="text8085-3-06-4-0-2-76-8-0-0-06-7-0-8"
         x="207.60831"
         y="-6.946753"><tspan
           sodipodi:role="line"
           id="tspan8083-2-2-30-6-6-73-9-5-3-4-1-4-1"
           x="207.60831"
           y="-6.946753"
           style="font-style:normal;font-variant:normal;font-weight:normal;font-stretch:normal;font-family:sans-serif;-inkscape-font-specification:sans-serif">20</tspan></text>
      <text
         xml:space="preserve"
         transform="scale(1,-1)"
         style="font-variant:normal;font-weight:normal;font-size:8px;font-family:ArialMT;-inkscape-font-specification:ArialMT;writing-mode:lr-tb;fill:#3f60b6;fill-opacity:1;fill-rule:nonzero;stroke:none"
         id="text8085-3-06-4-0-2-76-8-0-0-06-7-8-9"
         x="322.38486"
         y="-6.946753"><tspan
           sodipodi:role="line"
           id="tspan8083-2-2-30-6-6-73-9-5-3-4-1-0-8"
           x="322.38486"
           y="-6.946753"
           style="font-style:normal;font-variant:normal;font-weight:normal;font-stretch:normal;font-family:sans-serif;-inkscape-font-specification:sans-serif">35</tspan></text>
      <text
         xml:space="preserve"
         transform="scale(1,-1)"
         style="font-variant:normal;font-weight:normal;font-size:8px;font-family:ArialMT;-inkscape-font-specification:ArialMT;writing-mode:lr-tb;fill:#3f60b6;fill-opacity:1;fill-rule:nonzero;stroke:none"
         id="text8085-3-06-4-0-2-76-8-0-0-06-7-0-8-3"
         x="284.0661"
         y="-6.946753"><tspan
           sodipodi:role="line"
           id="tspan8083-2-2-30-6-6-73-9-5-3-4-1-4-1-8"
           x="284.0661"
           y="-6.946753"
           style="font-style:normal;font-variant:normal;font-weight:normal;font-stretch:normal;font-family:sans-serif;-inkscape-font-specification:sans-serif">30</tspan></text>
      <text
         xml:space="preserve"
         transform="scale(1,-1)"
         style="font-variant:normal;font-weight:normal;font-size:8px;font-family:ArialMT;-inkscape-font-specification:ArialMT;writing-mode:lr-tb;fill:#3f60b6;fill-opacity:1;fill-rule:nonzero;stroke:none"
         id="text8085-3-06-4-0-2-76-8-0-0-06-7-08-0"
         x="169.31105"
         y="-6.946753"><tspan
           sodipodi:role="line"
           id="tspan8083-2-2-30-6-6-73-9-5-3-4-1-5-2"
           x="169.31105"
           y="-6.946753"
           style="font-style:normal;font-variant:normal;font-weight:normal;font-stretch:normal;font-family:sans-serif;-inkscape-font-specification:sans-serif">15</tspan></text>
      <text
         xml:space="preserve"
         transform="scale(1,-1)"
         style="font-variant:normal;font-weight:normal;font-size:8px;font-family:ArialMT;-inkscape-font-specification:ArialMT;writing-mode:lr-tb;fill:#3f60b6;fill-opacity:1;fill-rule:nonzero;stroke:none"
         id="text8085-3-06-4-0-2-76-8-0-0-06-7-1-2"
         x="130.99231"
         y="-6.946753"><tspan
           sodipodi:role="line"
           id="tspan8083-2-2-30-6-6-73-9-5-3-4-1-6-9"
           x="130.99231"
           y="-6.946753"
           style="font-style:normal;font-variant:normal;font-weight:normal;font-stretch:normal;font-family:sans-serif;-inkscape-font-specification:sans-serif">10</tspan></text>
      <text
         xml:space="preserve"
         transform="scale(1,-1)"
         style="font-variant:normal;font-weight:normal;font-size:8px;font-family:ArialMT;-inkscape-font-specification:ArialMT;writing-mode:lr-tb;fill:#3f60b6;fill-opacity:1;fill-rule:nonzero;stroke:none"
         id="text8085-3-06-4-0-2-76-8-0-0-06-7-6"
         x="37.110809"
         y="-68.992393"><tspan
           sodipodi:role="line"
           id="tspan8083-2-2-30-6-6-73-9-5-3-4-1-2"
           x="37.110809"
           y="-68.992393"
           style="font-style:normal;font-variant:normal;font-weight:normal;font-stretch:normal;font-family:sans-serif;-inkscape-font-specification:sans-serif">100</tspan></text>
      <text
         xml:space="preserve"
         transform="scale(1,-1)"
         style="font-variant:normal;font-weight:normal;font-size:8px;font-family:ArialMT;-inkscape-font-specification:ArialMT;writing-mode:lr-tb;fill:#3f60b6;fill-opacity:1;fill-rule:nonzero;stroke:none"
         id="text8085-3-06-4-0-2-76-8-0-0-06-7-6-64"
         x="42.200653"
         y="-43.409565"><tspan
           sodipodi:role="line"
           id="tspan8083-2-2-30-6-6-73-9-5-3-4-1-2-6"
           x="42.200653"
           y="-43.409565"
           style="font-style:normal;font-variant:normal;font-weight:normal;font-stretch:normal;font-family:sans-serif;-inkscape-font-specification:sans-serif">50</tspan></text>
      <text
         xml:space="preserve"
         transform="scale(1,-1)"
         style="font-variant:normal;font-weight:normal;font-size:8px;font-family:ArialMT;-inkscape-font-specification:ArialMT;writing-mode:lr-tb;fill:#3f60b6;fill-opacity:1;fill-rule:nonzero;stroke:none"
         id="text8085-3-06-4-0-2-76-8-0-0-06-7-6-1"
         x="57.2435"
         y="-6.946753"><tspan
           sodipodi:role="line"
           id="tspan8083-2-2-30-6-6-73-9-5-3-4-1-2-9"
           x="57.2435"
           y="-6.946753"
           style="font-style:normal;font-variant:normal;font-weight:normal;font-stretch:normal;font-family:sans-serif;-inkscape-font-specification:sans-serif">0</tspan></text>
      <text
         xml:space="preserve"
         transform="scale(1,-1)"
         style="font-variant:normal;font-weight:normal;font-size:8px;font-family:ArialMT;-inkscape-font-specification:ArialMT;writing-mode:lr-tb;fill:#3f60b6;fill-opacity:1;fill-rule:nonzero;stroke:none"
         id="text8085-3-06-4-0-2-76-8-0-0-06-7-6-6"
         x="95.517319"
         y="-6.946753"><tspan
           sodipodi:role="line"
           id="tspan8083-2-2-30-6-6-73-9-5-3-4-1-2-4"
           x="95.517319"
           y="-6.946753"
           style="font-style:normal;font-variant:normal;font-weight:normal;font-stretch:normal;font-family:sans-serif;-inkscape-font-specification:sans-serif">5</tspan></text>
      <text
         xml:space="preserve"
         transform="matrix(0,1,1,0,0,0)"
         style="font-variant:normal;font-weight:normal;font-size:8px;font-family:ArialMT;-inkscape-font-specification:ArialMT;text-align:center;writing-mode:lr-tb;text-anchor:middle;fill:#3f60b6;fill-opacity:1;fill-rule:nonzero;stroke:none"
         id="text8085-3-06-4-0-2-6-6-3"
         x="84.721222"
         y="8.2991476"><tspan
           sodipodi:role="line"
           x="84.721222"
           y="8.2991476"
           style="font-style:normal;font-variant:normal;font-weight:bold;font-stretch:normal;font-family:sans-serif;-inkscape-font-specification:'sans-serif Bold';text-align:center;text-anchor:middle"
           id="tspan23836">Skumulowany wzrost zagregowanych</tspan><tspan
           sodipodi:role="line"
           x="84.721222"
           y="18.426151"
           style="font-style:normal;font-variant:normal;font-weight:bold;font-stretch:normal;font-family:sans-serif;-inkscape-font-specification:'sans-serif Bold';text-align:center;text-anchor:middle"
           id="tspan4">wydatków w wyniku pierwotnego</tspan><tspan
           sodipodi:role="line"
           x="84.721222"
           y="28.553154"
           style="font-style:normal;font-variant:normal;font-weight:bold;font-stretch:normal;font-family:sans-serif;-inkscape-font-specification:'sans-serif Bold';text-align:center;text-anchor:middle"
           id="tspan5">wzrostu wydatków rządowych o 100</tspan></text>
    </g>
  </g>
</svg>
