<?xml version="1.0" encoding="UTF-8" standalone="no"?>
<!-- Created with Inkscape (http://www.inkscape.org/) -->

<svg
   version="1.1"
   id="svg446"
   width="298.30414"
   height="229.47543"
   viewBox="0 0 298.30413 229.47543"
   sodipodi:docname="CNX_Econ_C25_019.svg"
   inkscape:version="1.3 (1:1.3+202307231459+0e150ed6c4)"
   xmlns:inkscape="http://www.inkscape.org/namespaces/inkscape"
   xmlns:sodipodi="http://sodipodi.sourceforge.net/DTD/sodipodi-0.dtd"
   xmlns="http://www.w3.org/2000/svg"
   xmlns:svg="http://www.w3.org/2000/svg">
  <defs
     id="defs450" />
  <sodipodi:namedview
     id="namedview448"
     pagecolor="#ffffff"
     bordercolor="#000000"
     borderopacity="0.25"
     inkscape:showpageshadow="2"
     inkscape:pageopacity="0.0"
     inkscape:pagecheckerboard="0"
     inkscape:deskcolor="#d1d1d1"
     showgrid="false"
     inkscape:zoom="3.1735453"
     inkscape:cx="135.49515"
     inkscape:cy="113.28025"
     inkscape:window-width="1848"
     inkscape:window-height="1043"
     inkscape:window-x="1438"
     inkscape:window-y="0"
     inkscape:window-maximized="1"
     inkscape:current-layer="g23108"
     showguides="true">
    <inkscape:page
       x="0"
       y="0"
       id="page452"
       width="298.30414"
       height="229.47543"
       margin="0"
       bleed="0" />
    <sodipodi:guide
       position="163.30317,2.6124394"
       orientation="0,-1"
       id="guide22672"
       inkscape:locked="false" />
    <sodipodi:guide
       position="-3.2301917,70.911424"
       orientation="1,0"
       id="guide22674"
       inkscape:locked="false" />
    <sodipodi:guide
       position="47.236917,31.863731"
       orientation="1,0"
       id="guide22871"
       inkscape:locked="false" />
    <sodipodi:guide
       position="53.539343,31.863731"
       orientation="0,-1"
       id="guide22873"
       inkscape:locked="false" />
    <sodipodi:guide
       position="20.583699,27.342251"
       orientation="0.70710678,-0.70710678"
       id="guide5780"
       inkscape:locked="false" />
    <sodipodi:guide
       position="10.406249,22.304809"
       orientation="1,0"
       id="guide5"
       inkscape:locked="false" />
    <sodipodi:guide
       position="15.546249,17.164809"
       orientation="0,-1"
       id="guide6"
       inkscape:locked="false" />
  </sodipodi:namedview>
  <g
     id="g454"
     inkscape:groupmode="layer"
     inkscape:label="Page 1"
     transform="matrix(1.3333333,0,0,-1.3333333,-4.7550851,235.39857)">
    <g
       id="g23108">
      <g
         id="g6">
        <path
           d="M 175.115,16.352033 H 15.476001 V 176.54893"
           style="fill:none;stroke:#3f60b6;stroke-width:0.5;stroke-linecap:butt;stroke-linejoin:miter;stroke-miterlimit:4;stroke-dasharray:none;stroke-opacity:1"
           id="path492" />
        <path
           d="m 113.885,125.17793 c 0.777,-0.778 0.777,-2.05 0,-2.828 -0.778,-0.778 -2.051,-0.778 -2.828,0 -0.779,0.778 -0.779,2.05 0,2.828 0.777,0.778 2.05,0.778 2.828,0"
           style="fill:#3f60b6;fill-opacity:1;fill-rule:nonzero;stroke:none;stroke-width:0.1"
           id="path498" />
        <path
           d="m 113.885,114.35893 c 0.777,-0.778 0.777,-2.051 0,-2.828 -0.778,-0.778 -2.051,-0.778 -2.828,0 -0.779,0.777 -0.779,2.05 0,2.828 0.777,0.778 2.05,0.778 2.828,0"
           style="fill:#3f60b6;fill-opacity:1;fill-rule:nonzero;stroke:none;stroke-width:0.1"
           id="path500" />
        <path
           d="m 160.906,144.73693 c 0.778,-0.778 0.778,-2.051 0,-2.828 -0.777,-0.778 -2.051,-0.778 -2.828,0 -0.777,0.777 -0.777,2.05 0,2.828 0.777,0.778 2.051,0.778 2.828,0"
           style="fill:#3f60b6;fill-opacity:1;fill-rule:nonzero;stroke:none;stroke-width:0.1"
           id="path502" />
        <path
           d="m 160.342,161.38893 c 0.777,-0.778 0.777,-2.05 0,-2.828 -0.778,-0.778 -2.051,-0.778 -2.828,0 -0.778,0.778 -0.778,2.05 0,2.828 0.777,0.778 2.05,0.778 2.828,0"
           style="fill:#3f60b6;fill-opacity:1;fill-rule:nonzero;stroke:none;stroke-width:0.1"
           id="path504" />
        <path
           d="m 132.609,133.08493 c 0.778,-0.778 0.778,-2.051 0,-2.829 -0.777,-0.777 -2.05,-0.777 -2.828,0 -0.777,0.778 -0.777,2.051 0,2.829 0.778,0.777 2.051,0.777 2.828,0"
           style="fill:#3f60b6;fill-opacity:1;fill-rule:nonzero;stroke:none;stroke-width:0.1"
           id="path506" />
        <path
           d="m 30.565901,31.495733 c 3.8906,-3.891 6.2969,-9.266 6.2969,-15.2039"
           style="fill:none;stroke:#3f60b6;stroke-width:0.5;stroke-linecap:butt;stroke-linejoin:miter;stroke-miterlimit:4;stroke-dasharray:none;stroke-opacity:1"
           id="path508" />
        <path
           d="M 15.74603,16.62206 174.83,175.70593"
           style="fill:none;stroke:#3f60b6;stroke-width:1;stroke-linecap:butt;stroke-linejoin:miter;stroke-miterlimit:4;stroke-dasharray:none;stroke-opacity:1"
           id="path510"
           sodipodi:nodetypes="cc" />
        <path
           d="M 15.339301,81.777833 175.133,150.43993"
           style="fill:none;stroke:#3f60b6;stroke-width:0.5;stroke-linecap:butt;stroke-linejoin:miter;stroke-miterlimit:4;stroke-dasharray:none;stroke-opacity:1"
           id="path512" />
        <path
           d="m 151.25,157.52893 c 0,-1.996 0,-1.507 0,-3.956 0,-1.688 -1.625,-2.283 -2.121,-2.298 v 0 c -0.09,0.003 -0.147,0 -0.147,0 0,0 0.057,-0.003 0.147,0 0.494,-0.015 2.121,-0.532 2.121,-2.298 0,-2.449 0,-1.96 0,-3.956 0,-1.995 1.906,-2.177 1.906,-2.177 h 0.815 c 0,0 -1.903,0.182 -1.903,2.177 0,1.996 0,1.878 0,4.327 0,1.817 -1.445,1.927 -1.445,1.927 0,0 1.445,0.11 1.445,1.927 0,2.449 0,2.331 0,4.327 0,1.995 1.903,2.177 1.903,2.177 h -0.815 c 0,0 -1.906,-0.182 -1.906,-2.177"
           style="fill:#231f20;fill-opacity:1;fill-rule:nonzero;stroke:none;stroke-width:0.1"
           id="path514" />
        <path
           d="M 150.248,151.27193 H 131.855"
           style="fill:none;stroke:#231f20;stroke-width:0.5;stroke-linecap:butt;stroke-linejoin:miter;stroke-miterlimit:4;stroke-dasharray:none;stroke-opacity:1"
           id="path516" />
        <path
           d="m 105.891,124.23893 c 0,-1.996 0,-1.507 0,-3.956 0,-1.688 -1.625,-2.284 -2.121,-2.298 v 0 c -0.09,0.003 -0.147,0 -0.147,0 0,0 0.057,-0.002 0.147,0 0.495,-0.016 2.121,-0.531 2.121,-2.299 0,-2.449 0,-1.959 0,-3.955 0,-1.995 1.906,-2.178 1.906,-2.178 h 0.816 c 0,0 -1.904,0.183 -1.904,2.178 0,1.996 0,1.878 0,4.327 0,1.816 -1.445,1.927 -1.445,1.927 0,0 1.445,0.11 1.445,1.926 0,2.449 0,2.332 0,4.328 0,1.994 1.904,2.176 1.904,2.176 h -0.816 c 0,0 -1.906,-0.182 -1.906,-2.176"
           style="fill:#231f20;fill-opacity:1;fill-rule:nonzero;stroke:none;stroke-width:0.1"
           id="path518" />
        <path
           d="M 104.889,117.98093 H 86.913501"
           style="fill:none;stroke:#231f20;stroke-width:0.5;stroke-linecap:butt;stroke-linejoin:miter;stroke-miterlimit:4;stroke-dasharray:none;stroke-opacity:1"
           id="path520" />
        <text
           xml:space="preserve"
           transform="scale(1,-1)"
           style="font-style:normal;font-variant:normal;font-weight:bold;font-stretch:normal;font-size:8px;font-family:sans-serif;-inkscape-font-specification:'sans-serif Bold';writing-mode:lr-tb;fill:#3f60b6;fill-opacity:1;fill-rule:nonzero;stroke:none"
           id="text8085-3-06-4-0-2-76-8"
           x="61.410736"
           y="-6.1689086"><tspan
             sodipodi:role="line"
             id="tspan8083-2-2-30-6-6-73-9"
             x="61.410736"
             y="-6.1689086"
             style="font-style:normal;font-variant:normal;font-weight:bold;font-stretch:normal;font-family:sans-serif;-inkscape-font-specification:'sans-serif Bold'">Realny PKB (Y)</tspan></text>
        <text
           xml:space="preserve"
           transform="scale(1,-1)"
           style="font-variant:normal;font-weight:normal;font-size:8px;font-family:ArialMT;-inkscape-font-specification:ArialMT;writing-mode:lr-tb;fill:#3f60b6;fill-opacity:1;fill-rule:nonzero;stroke:none"
           id="text8085-3-06-4-0-2-76-8-0-0-06-7-8"
           x="156.48456"
           y="-131.68913"><tspan
             sodipodi:role="line"
             id="tspan8083-2-2-30-6-6-73-9-5-3-4-1-0"
             x="156.48456"
             y="-131.68913"
             style="font-style:normal;font-variant:normal;font-weight:normal;font-stretch:normal;font-family:sans-serif;-inkscape-font-specification:sans-serif">H</tspan></text>
        <text
           xml:space="preserve"
           transform="scale(1,-1)"
           style="font-variant:normal;font-weight:normal;font-size:8px;font-family:ArialMT;-inkscape-font-specification:ArialMT;writing-mode:lr-tb;fill:#3f60b6;fill-opacity:1;fill-rule:nonzero;stroke:none"
           id="text8085-3-06-4-0-2-76-8-0-0-06-7-8-5"
           x="132.48564"
           y="-120.84792"><tspan
             sodipodi:role="line"
             id="tspan8083-2-2-30-6-6-73-9-5-3-4-1-0-4"
             x="132.48564"
             y="-120.84792"
             style="font-style:normal;font-variant:normal;font-weight:normal;font-stretch:normal;font-family:sans-serif;-inkscape-font-specification:sans-serif">E</tspan></text>
        <text
           xml:space="preserve"
           transform="scale(1,-1)"
           style="font-variant:normal;font-weight:normal;font-size:8px;font-family:ArialMT;-inkscape-font-specification:ArialMT;writing-mode:lr-tb;fill:#3f60b6;fill-opacity:1;fill-rule:nonzero;stroke:none"
           id="text8085-3-06-4-0-2-76-8-0-0-06-7-8-5-5"
           x="38.603378"
           y="-23.38451"><tspan
             sodipodi:role="line"
             id="tspan8083-2-2-30-6-6-73-9-5-3-4-1-0-4-4"
             x="38.603378"
             y="-23.38451"
             style="font-style:normal;font-variant:normal;font-weight:normal;font-stretch:normal;font-family:sans-serif;-inkscape-font-specification:sans-serif">45</tspan></text>
        <text
           xml:space="preserve"
           transform="scale(1,-1)"
           style="font-variant:normal;font-weight:normal;font-size:8px;font-family:ArialMT;-inkscape-font-specification:ArialMT;writing-mode:lr-tb;fill:#3f60b6;fill-opacity:1;fill-rule:nonzero;stroke:none"
           id="text8085-3-06-4-0-2-76-8-0-0-06-7-8-5-1"
           x="110.20399"
           y="-129.71193"><tspan
             sodipodi:role="line"
             id="tspan8083-2-2-30-6-6-73-9-5-3-4-1-0-4-5"
             x="110.20399"
             y="-129.71193"
             style="font-style:normal;font-variant:normal;font-weight:normal;font-stretch:normal;font-family:sans-serif;-inkscape-font-specification:sans-serif">L</tspan></text>
        <text
           xml:space="preserve"
           transform="scale(1,-1)"
           style="font-variant:normal;font-weight:normal;font-size:8px;font-family:ArialMT;-inkscape-font-specification:ArialMT;text-align:center;writing-mode:lr-tb;text-anchor:middle;fill:#3f60b6;fill-opacity:1;fill-rule:nonzero;stroke:none"
           id="text8085-3-06-4-0-2-76-8-0-0-06-7-6-1-7-0"
           x="103.6562"
           y="-164.37148"><tspan
             sodipodi:role="line"
             x="103.6562"
             y="-164.37148"
             style="font-style:normal;font-variant:normal;font-weight:normal;font-stretch:normal;font-family:sans-serif;-inkscape-font-specification:sans-serif;text-align:center;text-anchor:middle"
             id="tspan22678">Produkcja &gt;</tspan><tspan
             sodipodi:role="line"
             x="103.6562"
             y="-154.24448"
             style="font-style:normal;font-variant:normal;font-weight:normal;font-stretch:normal;font-family:sans-serif;-inkscape-font-specification:sans-serif;text-align:center;text-anchor:middle"
             id="tspan1">Zagregowane</tspan><tspan
             sodipodi:role="line"
             x="103.6562"
             y="-144.11746"
             style="font-style:normal;font-variant:normal;font-weight:normal;font-stretch:normal;font-family:sans-serif;-inkscape-font-specification:sans-serif;text-align:center;text-anchor:middle"
             id="tspan4">wydatki</tspan></text>
        <text
           xml:space="preserve"
           transform="scale(1,-1)"
           style="font-variant:normal;font-weight:normal;font-size:8px;font-family:ArialMT;-inkscape-font-specification:ArialMT;text-align:center;writing-mode:lr-tb;text-anchor:middle;fill:#3f60b6;fill-opacity:1;fill-rule:nonzero;stroke:none"
           id="text8085-3-06-4-0-2-76-8-0-0-06-7-6-1-7-0-9"
           x="56.010406"
           y="-129.6864"><tspan
             sodipodi:role="line"
             x="56.010406"
             y="-129.6864"
             style="font-style:normal;font-variant:normal;font-weight:normal;font-stretch:normal;font-family:sans-serif;-inkscape-font-specification:sans-serif;text-align:center;text-anchor:middle"
             id="tspan22678-1">Produkcja &lt;</tspan><tspan
             sodipodi:role="line"
             x="56.010406"
             y="-119.55939"
             style="font-style:normal;font-variant:normal;font-weight:normal;font-stretch:normal;font-family:sans-serif;-inkscape-font-specification:sans-serif;text-align:center;text-anchor:middle"
             id="tspan2">Zagregowane</tspan><tspan
             sodipodi:role="line"
             x="56.010406"
             y="-109.4324"
             style="font-style:normal;font-variant:normal;font-weight:normal;font-stretch:normal;font-family:sans-serif;-inkscape-font-specification:sans-serif;text-align:center;text-anchor:middle"
             id="tspan3">wydatki</tspan></text>
        <text
           xml:space="preserve"
           transform="scale(1,-1)"
           style="font-variant:normal;font-weight:normal;font-size:8px;font-family:ArialMT;-inkscape-font-specification:ArialMT;text-align:center;writing-mode:lr-tb;text-anchor:middle;fill:#3f60b6;fill-opacity:1;fill-rule:nonzero;stroke:none"
           id="text8085-3-06-4-0-2-76-8-0-0-06-7-6-1-7-5"
           x="200.26709"
           y="-153.64914"><tspan
             sodipodi:role="line"
             x="200.26709"
             y="-153.64914"
             style="font-style:normal;font-variant:normal;font-weight:normal;font-stretch:normal;font-family:sans-serif;-inkscape-font-specification:sans-serif;text-align:center;text-anchor:middle"
             id="tspan21823">Zagregowane</tspan><tspan
             sodipodi:role="line"
             x="200.26709"
             y="-143.52214"
             style="font-style:normal;font-variant:normal;font-weight:normal;font-stretch:normal;font-family:sans-serif;-inkscape-font-specification:sans-serif;text-align:center;text-anchor:middle"
             id="tspan5">wydatki</tspan></text>
        <text
           xml:space="preserve"
           transform="matrix(0,1,1,0,0,0)"
           style="font-variant:normal;font-weight:normal;font-size:8px;font-family:ArialMT;-inkscape-font-specification:ArialMT;writing-mode:lr-tb;fill:#3f60b6;fill-opacity:1;fill-rule:nonzero;stroke:none"
           id="text8085-3-06-4-0-2-6-6-3"
           x="46.565716"
           y="9.6444387"><tspan
             sodipodi:role="line"
             id="tspan8083-2-2-30-6-6-43-5-0"
             x="46.565716"
             y="9.6444387"
             style="font-style:normal;font-variant:normal;font-weight:bold;font-stretch:normal;font-family:sans-serif;-inkscape-font-specification:'sans-serif Bold'">Zagregowane wydatki</tspan></text>
      </g>
      <g
         id="g4874-2-9-19"
         transform="translate(-25.755939,-55.142156)"
         style="fill:#ffcc00">
        <rect
           style="fill:#ffcc00;fill-opacity:1;stroke:none;stroke-width:0.472479;stroke-linecap:butt;stroke-linejoin:miter;stroke-dasharray:none;stroke-dashoffset:0;stroke-opacity:1"
           id="rect5879-3-7-2-0-5-8-7-4"
           width="3.855"
           height="3.855"
           x="24.453785"
           y="-30.265163"
           transform="scale(1,-1)" />
      </g>
      <g
         id="g4874-2-3-7"
         transform="translate(-25.755939,-58.997156)"
         style="fill:#ffcc00">
        <rect
           style="fill:#ffcc00;fill-opacity:1;stroke:none;stroke-width:0.472479;stroke-linecap:butt;stroke-linejoin:miter;stroke-dasharray:none;stroke-dashoffset:0;stroke-opacity:1"
           id="rect5879-3-7-2-0-5-8-6-8"
           width="3.855"
           height="3.855"
           x="24.453785"
           y="-30.265163"
           transform="scale(1,-1)" />
      </g>
    </g>
  </g>
</svg>
