<?xml version="1.0" encoding="UTF-8" standalone="no"?>
<!-- Created with Inkscape (http://www.inkscape.org/) -->

<svg
   version="1.1"
   id="svg7558"
   width="384.67682"
   height="384.67682"
   viewBox="0 0 384.67682 384.67682"
   sodipodi:docname="CNX_Econ_C27_001.svg"
   inkscape:version="1.3 (1:1.3+202307231459+0e150ed6c4)"
   xmlns:inkscape="http://www.inkscape.org/namespaces/inkscape"
   xmlns:sodipodi="http://sodipodi.sourceforge.net/DTD/sodipodi-0.dtd"
   xmlns="http://www.w3.org/2000/svg"
   xmlns:svg="http://www.w3.org/2000/svg">
  <defs
     id="defs7562">
    <clipPath
       clipPathUnits="userSpaceOnUse"
       id="clipPath7576">
      <path
         d="M 0,0 H 4560 V 3883 H 0 Z"
         id="path7574" />
    </clipPath>
    <clipPath
       clipPathUnits="userSpaceOnUse"
       id="clipPath7582">
      <path
         d="M 4560,0 H 0 V 3883.2 H 4560 V 0 M 229.824,1970.99 C 229.82,1507.03 456.535,1086.37 822.375,781.809 1188.22,477.23 1693.22,288.652 2250.1,288.652 c 500.06,0 958.3,152.078 1311.5,403.629 h 548.01 v 621.059 c 103.47,202.11 160.76,424.4 160.76,657.65 0,233.26 -57.29,455.55 -160.76,657.67 v 562.02 h -469.34 c -362.47,286.62 -852.11,462.7 -1390.17,462.7 -556.88,0 -1061.88,-188.59 -1427.725,-493.17 C 456.535,2855.64 229.82,2434.97 229.824,1970.99 v 0 0 0"
         id="path7580" />
    </clipPath>
    <clipPath
       clipPathUnits="userSpaceOnUse"
       id="clipPath7588">
      <path
         d="M 0,2822.4 H 1053.6 V 3888 H 0 Z"
         id="path7586" />
    </clipPath>
    <clipPath
       clipPathUnits="userSpaceOnUse"
       id="clipPath7600">
      <path
         d="M 0,0 H 4560 V 3883 H 0 Z"
         id="path7598" />
    </clipPath>
    <clipPath
       clipPathUnits="userSpaceOnUse"
       id="clipPath7606">
      <path
         d="M 4560,0 H 0 V 3883.2 H 4560 V 0 M 229.824,1970.99 C 229.82,1507.03 456.535,1086.37 822.375,781.809 1188.22,477.23 1693.22,288.652 2250.1,288.652 c 500.06,0 958.3,152.078 1311.5,403.629 h 548.01 v 621.059 c 103.47,202.11 160.76,424.4 160.76,657.65 0,233.26 -57.29,455.55 -160.76,657.67 v 562.02 h -469.34 c -362.47,286.62 -852.11,462.7 -1390.17,462.7 -556.88,0 -1061.88,-188.59 -1427.725,-493.17 C 456.535,2855.64 229.82,2434.97 229.824,1970.99 v 0 0 0"
         id="path7604" />
    </clipPath>
    <clipPath
       clipPathUnits="userSpaceOnUse"
       id="clipPath7612">
      <path
         d="m 1048.8,3175.2 h 708 v 712.801 h -708 z"
         id="path7610" />
    </clipPath>
    <clipPath
       clipPathUnits="userSpaceOnUse"
       id="clipPath7624">
      <path
         d="M 0,0 H 4560 V 3883 H 0 Z"
         id="path7622" />
    </clipPath>
    <clipPath
       clipPathUnits="userSpaceOnUse"
       id="clipPath7630">
      <path
         d="M 4560,0 H 0 V 3883.2 H 4560 V 0 M 229.824,1970.99 C 229.82,1507.03 456.535,1086.37 822.375,781.809 1188.22,477.23 1693.22,288.652 2250.1,288.652 c 500.06,0 958.3,152.078 1311.5,403.629 h 548.01 v 621.059 c 103.47,202.11 160.76,424.4 160.76,657.65 0,233.26 -57.29,455.55 -160.76,657.67 v 562.02 h -469.34 c -362.47,286.62 -852.11,462.7 -1390.17,462.7 -556.88,0 -1061.88,-188.59 -1427.725,-493.17 C 456.535,2855.64 229.82,2434.97 229.824,1970.99 v 0 0 0"
         id="path7628" />
    </clipPath>
    <clipPath
       clipPathUnits="userSpaceOnUse"
       id="clipPath7636">
      <path
         d="m 1752,3530.4 h 2812.8 v 357.602 H 1752 Z"
         id="path7634" />
    </clipPath>
    <clipPath
       clipPathUnits="userSpaceOnUse"
       id="clipPath7648">
      <path
         d="M 0,0 H 4560 V 3883 H 0 Z"
         id="path7646" />
    </clipPath>
    <clipPath
       clipPathUnits="userSpaceOnUse"
       id="clipPath7654">
      <path
         d="M 4560,0 H 0 V 3883.2 H 4560 V 0 M 229.824,1970.99 C 229.82,1507.03 456.535,1086.37 822.375,781.809 1188.22,477.23 1693.22,288.652 2250.1,288.652 c 500.06,0 958.3,152.078 1311.5,403.629 h 548.01 v 621.059 c 103.47,202.11 160.76,424.4 160.76,657.65 0,233.26 -57.29,455.55 -160.76,657.67 v 562.02 h -469.34 c -362.47,286.62 -852.11,462.7 -1390.17,462.7 -556.88,0 -1061.88,-188.59 -1427.725,-493.17 C 456.535,2855.64 229.82,2434.97 229.824,1970.99 v 0 0 0"
         id="path7652" />
    </clipPath>
    <clipPath
       clipPathUnits="userSpaceOnUse"
       id="clipPath7660">
      <path
         d="m 2803.2,3175.2 h 1761.6 v 360 H 2803.2 Z"
         id="path7658" />
    </clipPath>
    <clipPath
       clipPathUnits="userSpaceOnUse"
       id="clipPath7672">
      <path
         d="M 0,0 H 4560 V 3883 H 0 Z"
         id="path7670" />
    </clipPath>
    <clipPath
       clipPathUnits="userSpaceOnUse"
       id="clipPath7678">
      <path
         d="M 4560,0 H 0 V 3883.2 H 4560 V 0 M 229.824,1970.99 C 229.82,1507.03 456.535,1086.37 822.375,781.809 1188.22,477.23 1693.22,288.652 2250.1,288.652 c 500.06,0 958.3,152.078 1311.5,403.629 h 548.01 v 621.059 c 103.47,202.11 160.76,424.4 160.76,657.65 0,233.26 -57.29,455.55 -160.76,657.67 v 562.02 h -469.34 c -362.47,286.62 -852.11,462.7 -1390.17,462.7 -556.88,0 -1061.88,-188.59 -1427.725,-493.17 C 456.535,2855.64 229.82,2434.97 229.824,1970.99 v 0 0 0"
         id="path7676" />
    </clipPath>
    <clipPath
       clipPathUnits="userSpaceOnUse"
       id="clipPath7684">
      <path
         d="m 3856.8,2116.8 h 708 V 3180 h -708 z"
         id="path7682" />
    </clipPath>
    <clipPath
       clipPathUnits="userSpaceOnUse"
       id="clipPath7696">
      <path
         d="M 0,0 H 4560 V 3883 H 0 Z"
         id="path7694" />
    </clipPath>
    <clipPath
       clipPathUnits="userSpaceOnUse"
       id="clipPath7702">
      <path
         d="M 4560,0 H 0 V 3883.2 H 4560 V 0 M 229.824,1970.99 C 229.82,1507.03 456.535,1086.37 822.375,781.809 1188.22,477.23 1693.22,288.652 2250.1,288.652 c 500.06,0 958.3,152.078 1311.5,403.629 h 548.01 v 621.059 c 103.47,202.11 160.76,424.4 160.76,657.65 0,233.26 -57.29,455.55 -160.76,657.67 v 562.02 h -469.34 c -362.47,286.62 -852.11,462.7 -1390.17,462.7 -556.88,0 -1061.88,-188.59 -1427.725,-493.17 C 456.535,2855.64 229.82,2434.97 229.824,1970.99 v 0 0 0"
         id="path7700" />
    </clipPath>
    <clipPath
       clipPathUnits="userSpaceOnUse"
       id="clipPath7708">
      <path
         d="m 0,2469.6 h 703.199 v 357.598 H 0 Z"
         id="path7706" />
    </clipPath>
    <clipPath
       clipPathUnits="userSpaceOnUse"
       id="clipPath7720">
      <path
         d="M 0,0 H 4560 V 3883 H 0 Z"
         id="path7718" />
    </clipPath>
    <clipPath
       clipPathUnits="userSpaceOnUse"
       id="clipPath7726">
      <path
         d="M 4560,0 H 0 V 3883.2 H 4560 V 0 M 229.824,1970.99 C 229.82,1507.03 456.535,1086.37 822.375,781.809 1188.22,477.23 1693.22,288.652 2250.1,288.652 c 500.06,0 958.3,152.078 1311.5,403.629 h 548.01 v 621.059 c 103.47,202.11 160.76,424.4 160.76,657.65 0,233.26 -57.29,455.55 -160.76,657.67 v 562.02 h -469.34 c -362.47,286.62 -852.11,462.7 -1390.17,462.7 -556.88,0 -1061.88,-188.59 -1427.725,-493.17 C 456.535,2855.64 229.82,2434.97 229.824,1970.99 v 0 0 0"
         id="path7724" />
    </clipPath>
    <clipPath
       clipPathUnits="userSpaceOnUse"
       id="clipPath7732">
      <path
         d="M 0,0 H 350.398 V 2474.4 H 0 Z"
         id="path7730" />
    </clipPath>
    <clipPath
       clipPathUnits="userSpaceOnUse"
       id="clipPath7744">
      <path
         d="M 0,0 H 4560 V 3883 H 0 Z"
         id="path7742" />
    </clipPath>
    <clipPath
       clipPathUnits="userSpaceOnUse"
       id="clipPath7750">
      <path
         d="M 4560,0 H 0 V 3883.2 H 4560 V 0 M 229.824,1970.99 C 229.82,1507.03 456.535,1086.37 822.375,781.809 1188.22,477.23 1693.22,288.652 2250.1,288.652 c 500.06,0 958.3,152.078 1311.5,403.629 h 548.01 v 621.059 c 103.47,202.11 160.76,424.4 160.76,657.65 0,233.26 -57.29,455.55 -160.76,657.67 v 562.02 h -469.34 c -362.47,286.62 -852.11,462.7 -1390.17,462.7 -556.88,0 -1061.88,-188.59 -1427.725,-493.17 C 456.535,2855.64 229.82,2434.97 229.824,1970.99 v 0 0 0"
         id="path7748" />
    </clipPath>
    <clipPath
       clipPathUnits="userSpaceOnUse"
       id="clipPath7756">
      <path
         d="m 4209.6,0 h 355.199 V 2121.6 H 4209.6 Z"
         id="path7754" />
    </clipPath>
    <clipPath
       clipPathUnits="userSpaceOnUse"
       id="clipPath7768">
      <path
         d="M 0,0 H 4560 V 3883 H 0 Z"
         id="path7766" />
    </clipPath>
    <clipPath
       clipPathUnits="userSpaceOnUse"
       id="clipPath7774">
      <path
         d="M 4560,0 H 0 V 3883.2 H 4560 V 0 M 229.824,1970.99 C 229.82,1507.03 456.535,1086.37 822.375,781.809 1188.22,477.23 1693.22,288.652 2250.1,288.652 c 500.06,0 958.3,152.078 1311.5,403.629 h 548.01 v 621.059 c 103.47,202.11 160.76,424.4 160.76,657.65 0,233.26 -57.29,455.55 -160.76,657.67 v 562.02 h -469.34 c -362.47,286.62 -852.11,462.7 -1390.17,462.7 -556.88,0 -1061.88,-188.59 -1427.725,-493.17 C 456.535,2855.64 229.82,2434.97 229.824,1970.99 v 0 0 0"
         id="path7772" />
    </clipPath>
    <clipPath
       clipPathUnits="userSpaceOnUse"
       id="clipPath7780">
      <path
         d="m 3856.8,0 h 357.598 V 1766.4 H 3856.8 Z"
         id="path7778" />
    </clipPath>
    <clipPath
       clipPathUnits="userSpaceOnUse"
       id="clipPath7792">
      <path
         d="M 0,0 H 4560 V 3883 H 0 Z"
         id="path7790" />
    </clipPath>
    <clipPath
       clipPathUnits="userSpaceOnUse"
       id="clipPath7798">
      <path
         d="M 4560,0 H 0 V 3883.2 H 4560 V 0 M 229.824,1970.99 C 229.82,1507.03 456.535,1086.37 822.375,781.809 1188.22,477.23 1693.22,288.652 2250.1,288.652 c 500.06,0 958.3,152.078 1311.5,403.629 h 548.01 v 621.059 c 103.47,202.11 160.76,424.4 160.76,657.65 0,233.26 -57.29,455.55 -160.76,657.67 v 562.02 h -469.34 c -362.47,286.62 -852.11,462.7 -1390.17,462.7 -556.88,0 -1061.88,-188.59 -1427.725,-493.17 C 456.535,2855.64 229.82,2434.97 229.824,1970.99 v 0 0 0"
         id="path7796" />
    </clipPath>
    <clipPath
       clipPathUnits="userSpaceOnUse"
       id="clipPath7804">
      <path
         d="M 345.602,0 H 703.2 V 1413.6 H 345.602 Z"
         id="path7802" />
    </clipPath>
    <clipPath
       clipPathUnits="userSpaceOnUse"
       id="clipPath7816">
      <path
         d="M 0,0 H 4560 V 3883 H 0 Z"
         id="path7814" />
    </clipPath>
    <clipPath
       clipPathUnits="userSpaceOnUse"
       id="clipPath7822">
      <path
         d="M 4560,0 H 0 V 3883.2 H 4560 V 0 M 229.824,1970.99 C 229.82,1507.03 456.535,1086.37 822.375,781.809 1188.22,477.23 1693.22,288.652 2250.1,288.652 c 500.06,0 958.3,152.078 1311.5,403.629 h 548.01 v 621.059 c 103.47,202.11 160.76,424.4 160.76,657.65 0,233.26 -57.29,455.55 -160.76,657.67 v 562.02 h -469.34 c -362.47,286.62 -852.11,462.7 -1390.17,462.7 -556.88,0 -1061.88,-188.59 -1427.725,-493.17 C 456.535,2855.64 229.82,2434.97 229.824,1970.99 v 0 0 0"
         id="path7820" />
    </clipPath>
    <clipPath
       clipPathUnits="userSpaceOnUse"
       id="clipPath7828">
      <path
         d="m 698.398,0 h 355.203 V 1060.8 H 698.398 Z"
         id="path7826" />
    </clipPath>
    <clipPath
       clipPathUnits="userSpaceOnUse"
       id="clipPath7840">
      <path
         d="M 0,0 H 4560 V 3883 H 0 Z"
         id="path7838" />
    </clipPath>
    <clipPath
       clipPathUnits="userSpaceOnUse"
       id="clipPath7846">
      <path
         d="M 4560,0 H 0 V 3883.2 H 4560 V 0 M 229.824,1970.99 C 229.82,1507.03 456.535,1086.37 822.375,781.809 1188.22,477.23 1693.22,288.652 2250.1,288.652 c 500.06,0 958.3,152.078 1311.5,403.629 h 548.01 v 621.059 c 103.47,202.11 160.76,424.4 160.76,657.65 0,233.26 -57.29,455.55 -160.76,657.67 v 562.02 h -469.34 c -362.47,286.62 -852.11,462.7 -1390.17,462.7 -556.88,0 -1061.88,-188.59 -1427.725,-493.17 C 456.535,2855.64 229.82,2434.97 229.824,1970.99 v 0 0 0"
         id="path7844" />
    </clipPath>
    <clipPath
       clipPathUnits="userSpaceOnUse"
       id="clipPath7852">
      <path
         d="m 1048.8,0 h 708 v 708 h -708 z"
         id="path7850" />
    </clipPath>
    <clipPath
       clipPathUnits="userSpaceOnUse"
       id="clipPath7864">
      <path
         d="M 0,0 H 4560 V 3883 H 0 Z"
         id="path7862" />
    </clipPath>
    <clipPath
       clipPathUnits="userSpaceOnUse"
       id="clipPath7870">
      <path
         d="M 4560,0 H 0 V 3883.2 H 4560 V 0 M 229.824,1970.99 C 229.82,1507.03 456.535,1086.37 822.375,781.809 1188.22,477.23 1693.22,288.652 2250.1,288.652 c 500.06,0 958.3,152.078 1311.5,403.629 h 548.01 v 621.059 c 103.47,202.11 160.76,424.4 160.76,657.65 0,233.26 -57.29,455.55 -160.76,657.67 v 562.02 h -469.34 c -362.47,286.62 -852.11,462.7 -1390.17,462.7 -556.88,0 -1061.88,-188.59 -1427.725,-493.17 C 456.535,2855.64 229.82,2434.97 229.824,1970.99 v 0 0 0"
         id="path7868" />
    </clipPath>
    <clipPath
       clipPathUnits="userSpaceOnUse"
       id="clipPath7876">
      <path
         d="M 2452.8,0 H 3861.6 V 708 H 2452.8 Z"
         id="path7874" />
    </clipPath>
    <clipPath
       clipPathUnits="userSpaceOnUse"
       id="clipPath7888">
      <path
         d="M 0,0 H 4560 V 3883 H 0 Z"
         id="path7886" />
    </clipPath>
    <clipPath
       clipPathUnits="userSpaceOnUse"
       id="clipPath7894">
      <path
         d="M 4560,0 H 0 V 3883.2 H 4560 V 0 M 229.824,1970.99 C 229.82,1507.03 456.535,1086.37 822.375,781.809 1188.22,477.23 1693.22,288.652 2250.1,288.652 c 500.06,0 958.3,152.078 1311.5,403.629 h 548.01 v 621.059 c 103.47,202.11 160.76,424.4 160.76,657.65 0,233.26 -57.29,455.55 -160.76,657.67 v 562.02 h -469.34 c -362.47,286.62 -852.11,462.7 -1390.17,462.7 -556.88,0 -1061.88,-188.59 -1427.725,-493.17 C 456.535,2855.64 229.82,2434.97 229.824,1970.99 v 0 0 0"
         id="path7892" />
    </clipPath>
    <clipPath
       clipPathUnits="userSpaceOnUse"
       id="clipPath7900">
      <path
         d="m 1752,0 h 705.602 V 352.801 H 1752 Z"
         id="path7898" />
    </clipPath>
    <clipPath
       clipPathUnits="userSpaceOnUse"
       id="clipPath7950">
      <path
         d="M 4109.61,692.281 H 3561.6 c 40.14,28.59 78.89,58.438 116.23,89.528 181.91,151.441 329.44,331.621 431.78,531.531 V 692.281"
         id="path7948" />
    </clipPath>
    <clipPath
       clipPathUnits="userSpaceOnUse"
       id="clipPath7956">
      <path
         d="m 3561.6,692.281 h 548.008 V 1313.34 H 3561.6 Z"
         id="path7954" />
    </clipPath>
    <clipPath
       clipPathUnits="userSpaceOnUse"
       id="clipPath7968">
      <path
         d="m 3552.96,692.281 h -30.16 c 258.71,178.77 462.46,410.759 586.81,675.669 v -43.58 C 4007.45,1121.6 3858.74,938.941 3674.63,785.648 c -39,-32.468 -79.61,-63.628 -121.67,-93.367 m 556.65,1881.769 c -111.07,236.63 -285.5,446.99 -505.86,616.63 h 28.45 c 14.34,-11.27 28.49,-22.71 42.43,-34.31 184.11,-153.3 332.82,-335.96 434.98,-538.74 v -43.58"
         id="path7966" />
    </clipPath>
    <clipPath
       clipPathUnits="userSpaceOnUse"
       id="clipPath7980">
      <path
         d="m 3522.8,692.281 h -35.04 c 280.84,188.75 498.43,440.189 621.85,728.579 v -52.91 C 3985.26,1103.04 3781.51,871.051 3522.8,692.281 m 586.81,1828.859 c -110.97,259.29 -298.03,488.69 -538.77,669.54 h 32.91 c 220.36,-169.64 394.79,-380 505.86,-616.63 v -52.91"
         id="path7978" />
    </clipPath>
    <clipPath
       clipPathUnits="userSpaceOnUse"
       id="clipPath7992">
      <path
         d="m 3487.76,692.281 h -35.66 c 305,199.141 537.27,472.189 657.51,786.469 v -57.89 C 3986.19,1132.47 3768.6,881.031 3487.76,692.281 m 621.85,1770.959 c -108.76,284.29 -309.15,534.81 -572.14,727.44 h 33.37 c 240.74,-180.85 427.8,-410.25 538.77,-669.54 v -57.9"
         id="path7990" />
    </clipPath>
    <clipPath
       clipPathUnits="userSpaceOnUse"
       id="clipPath8004">
      <path
         d="m 3452.1,692.281 h -36.32 c 331.94,210.219 579.89,507.919 693.83,851.459 v -64.99 C 3989.37,1164.47 3757.1,891.422 3452.1,692.281 m 657.51,1705.979 c -103.66,312.56 -318.17,587.12 -606,792.42 h 33.86 c 262.99,-192.63 463.38,-443.15 572.14,-727.44 v -64.98"
         id="path8002" />
    </clipPath>
    <clipPath
       clipPathUnits="userSpaceOnUse"
       id="clipPath8016">
      <path
         d="m 3415.78,692.281 h -37.05 c 362.97,222.59 628.07,549.609 730.88,927.459 v -76 C 3995.67,1200.2 3747.72,902.5 3415.78,692.281 m 693.83,1629.969 c -94.07,345.74 -323.95,648.87 -640.39,868.43 h 34.39 c 287.83,-205.3 502.34,-479.86 606,-792.42 v -76.01"
         id="path8014" />
    </clipPath>
    <clipPath
       clipPathUnits="userSpaceOnUse"
       id="clipPath8028">
      <path
         d="m 3378.73,692.281 h -37.86 c 401.17,237.77 685.96,602.939 768.74,1024.229 v -96.77 C 4006.8,1241.89 3741.7,914.871 3378.73,692.281 m 730.88,1533.209 c -76.2,387.81 -323.6,728.08 -675.36,965.19 h 34.97 c 316.44,-219.56 546.32,-522.69 640.39,-868.43 v -96.76"
         id="path8026" />
    </clipPath>
    <clipPath
       clipPathUnits="userSpaceOnUse"
       id="clipPath8040">
      <path
         d="m 3340.87,692.281 h -38.74 c 463.94,265.27 776.74,700.969 807.48,1197.989 V 1716.51 C 4026.83,1295.22 3742.04,930.051 3340.87,692.281 m 768.74,1359.439 c -28.56,461.73 -300.56,870.56 -710.97,1138.96 h 35.61 c 351.76,-237.11 599.16,-577.38 675.36,-965.19 v -173.77"
         id="path8038" />
    </clipPath>
    <clipPath
       clipPathUnits="userSpaceOnUse"
       id="clipPath8052">
      <path
         d="m 3302.13,692.281 h -39.74 c 498.37,274.188 827.45,744.779 827.45,1278.709 0,497.38 -285.57,939.8 -727.51,1219.69 h 36.31 c 410.41,-268.4 682.41,-677.23 710.97,-1138.96 V 1890.27 C 4078.87,1393.25 3766.07,957.551 3302.13,692.281"
         id="path8050" />
    </clipPath>
    <clipPath
       clipPathUnits="userSpaceOnUse"
       id="clipPath8064">
      <path
         d="m 3262.39,692.281 h -40.86 c 508.3,268.41 846.06,741.049 846.06,1278.709 0,500.23 -292.3,944.14 -742.32,1219.69 h 37.06 c 441.94,-279.89 727.51,-722.31 727.51,-1219.69 0,-533.93 -329.08,-1004.521 -827.45,-1278.709"
         id="path8062" />
    </clipPath>
    <clipPath
       clipPathUnits="userSpaceOnUse"
       id="clipPath8076">
      <path
         d="m 3221.53,692.281 h -42.12 c 518.92,262.117 865.92,736.959 865.92,1278.709 0,503.27 -299.47,948.8 -757.98,1219.69 h 37.92 c 450.02,-275.55 742.32,-719.46 742.32,-1219.69 0,-537.66 -337.76,-1010.299 -846.06,-1278.709"
         id="path8074" />
    </clipPath>
    <clipPath
       clipPathUnits="userSpaceOnUse"
       id="clipPath8088">
      <path
         d="m 3179.41,692.281 h -43.59 c 530.22,255.258 887.27,732.529 887.27,1278.709 0,506.58 -307.06,953.82 -774.6,1219.69 h 38.86 c 458.51,-270.89 757.98,-716.42 757.98,-1219.69 0,-541.75 -347,-1016.592 -865.92,-1278.709"
         id="path8086" />
    </clipPath>
    <clipPath
       clipPathUnits="userSpaceOnUse"
       id="clipPath8100">
      <path
         d="m 3135.82,692.281 h -45.25 c 542.32,247.739 910.26,727.679 910.26,1278.709 0,510.1 -315.24,959.24 -792.25,1219.69 h 39.91 c 467.54,-265.87 774.6,-713.11 774.6,-1219.69 0,-546.18 -357.05,-1023.451 -887.27,-1278.709"
         id="path8098" />
    </clipPath>
    <clipPath
       clipPathUnits="userSpaceOnUse"
       id="clipPath8112">
      <path
         d="m 3090.57,692.281 h -47.23 c 555.42,239.418 935.23,722.319 935.23,1278.709 0,513.95 -323.97,965.14 -811.12,1219.69 h 41.13 c 477.01,-260.45 792.25,-709.59 792.25,-1219.69 0,-551.03 -367.94,-1030.97 -910.26,-1278.709"
         id="path8110" />
    </clipPath>
    <clipPath
       clipPathUnits="userSpaceOnUse"
       id="clipPath8124">
      <path
         d="m 4109.61,2628.66 c -102.34,199.92 -249.87,380.1 -431.78,531.55 -12.37,10.3 -24.87,20.44 -37.56,30.47 h 469.34 v -562.02"
         id="path8122" />
    </clipPath>
    <clipPath
       clipPathUnits="userSpaceOnUse"
       id="clipPath8136">
      <path
         d="m 3043.34,692.281 h -49.58 c 569.65,230.129 962.57,716.349 962.57,1278.709 0,518.11 -333.45,971.56 -831.38,1219.69 h 42.5 c 487.15,-254.55 811.12,-705.74 811.12,-1219.69 0,-556.39 -379.81,-1039.291 -935.23,-1278.709"
         id="path8134" />
    </clipPath>
    <clipPath
       clipPathUnits="userSpaceOnUse"
       id="clipPath8148">
      <path
         d="m 2993.76,692.281 h -52.43 c 585.27,219.66 992.74,709.639 992.74,1278.709 0,522.66 -343.75,978.61 -853.2,1219.69 h 44.08 c 497.93,-248.13 831.38,-701.58 831.38,-1219.69 0,-562.36 -392.92,-1048.58 -962.57,-1278.709"
         id="path8146" />
    </clipPath>
    <clipPath
       clipPathUnits="userSpaceOnUse"
       id="clipPath8160">
      <path
         d="m 2941.33,692.281 h -56 C 3487.86,900 3911.82,1394.31 3911.82,1970.99 c 0,527.71 -354.96,986.42 -876.89,1219.69 h 45.94 c 509.45,-241.08 853.2,-697.03 853.2,-1219.69 0,-569.07 -407.47,-1059.049 -992.74,-1278.709 m -1326.48,0 h -3.64 v 1.258 c 1.22,-0.418 2.43,-0.84 3.64,-1.258"
         id="path8158" />
    </clipPath>
    <clipPath
       clipPathUnits="userSpaceOnUse"
       id="clipPath8166">
      <path
         d="m 2936.01,2833.08 h 669.598 v 362.398 H 2936.01 Z"
         id="path8164" />
    </clipPath>
    <clipPath
       clipPathUnits="userSpaceOnUse"
       id="clipPath8178">
      <path
         d="m 2941.33,692.281 h -56 C 3487.86,900 3911.82,1394.31 3911.82,1970.99 c 0,527.71 -354.96,986.42 -876.89,1219.69 h 45.94 c 509.45,-241.08 853.2,-697.03 853.2,-1219.69 0,-569.07 -407.47,-1059.049 -992.74,-1278.709 m -1326.48,0 h -3.64 v 1.258 c 1.22,-0.418 2.43,-0.84 3.64,-1.258"
         id="path8176" />
    </clipPath>
    <clipPath
       clipPathUnits="userSpaceOnUse"
       id="clipPath8184">
      <path
         d="m 3269.61,2475.48 h 669.602 v 362.398 H 3269.61 Z"
         id="path8182" />
    </clipPath>
    <clipPath
       clipPathUnits="userSpaceOnUse"
       id="clipPath8196">
      <path
         d="m 2941.33,692.281 h -56 C 3487.86,900 3911.82,1394.31 3911.82,1970.99 c 0,527.71 -354.96,986.42 -876.89,1219.69 h 45.94 c 509.45,-241.08 853.2,-697.03 853.2,-1219.69 0,-569.07 -407.47,-1059.049 -992.74,-1278.709 m -1326.48,0 h -3.64 v 1.258 c 1.22,-0.418 2.43,-0.84 3.64,-1.258"
         id="path8194" />
    </clipPath>
    <clipPath
       clipPathUnits="userSpaceOnUse"
       id="clipPath8202">
      <path
         d="m 3600.81,1045.08 h 338.402 v 1435.2 H 3600.81 Z"
         id="path8200" />
    </clipPath>
    <clipPath
       clipPathUnits="userSpaceOnUse"
       id="clipPath8214">
      <path
         d="m 2941.33,692.281 h -56 C 3487.86,900 3911.82,1394.31 3911.82,1970.99 c 0,527.71 -354.96,986.42 -876.89,1219.69 h 45.94 c 509.45,-241.08 853.2,-697.03 853.2,-1219.69 0,-569.07 -407.47,-1059.049 -992.74,-1278.709 m -1326.48,0 h -3.64 v 1.258 c 1.22,-0.418 2.43,-0.84 3.64,-1.258"
         id="path8212" />
    </clipPath>
    <clipPath
       clipPathUnits="userSpaceOnUse"
       id="clipPath8220">
      <path
         d="m 3269.61,687.48 h 336 v 720 h -336 z"
         id="path8218" />
    </clipPath>
    <clipPath
       clipPathUnits="userSpaceOnUse"
       id="clipPath8232">
      <path
         d="m 2941.33,692.281 h -56 C 3487.86,900 3911.82,1394.31 3911.82,1970.99 c 0,527.71 -354.96,986.42 -876.89,1219.69 h 45.94 c 509.45,-241.08 853.2,-697.03 853.2,-1219.69 0,-569.07 -407.47,-1059.049 -992.74,-1278.709 m -1326.48,0 h -3.64 v 1.258 c 1.22,-0.418 2.43,-0.84 3.64,-1.258"
         id="path8230" />
    </clipPath>
    <clipPath
       clipPathUnits="userSpaceOnUse"
       id="clipPath8238">
      <path
         d="m 1606.41,687.48 h 338.398 v 362.398 H 1606.41 Z"
         id="path8236" />
    </clipPath>
    <clipPath
       clipPathUnits="userSpaceOnUse"
       id="clipPath8250">
      <path
         d="m 2941.33,692.281 h -56 C 3487.86,900 3911.82,1394.31 3911.82,1970.99 c 0,527.71 -354.96,986.42 -876.89,1219.69 h 45.94 c 509.45,-241.08 853.2,-697.03 853.2,-1219.69 0,-569.07 -407.47,-1059.049 -992.74,-1278.709 m -1326.48,0 h -3.64 v 1.258 c 1.22,-0.418 2.43,-0.84 3.64,-1.258"
         id="path8248" />
    </clipPath>
    <clipPath
       clipPathUnits="userSpaceOnUse"
       id="clipPath8256">
      <path
         d="m 2604.81,687.48 h 669.602 v 362.398 H 2604.81 Z"
         id="path8254" />
    </clipPath>
    <clipPath
       clipPathUnits="userSpaceOnUse"
       id="clipPath8268">
      <path
         d="M 2885.33,692.281 H 1614.85 c -1.21,0.418 -2.42,0.84 -3.64,1.258 V 3190.68 H 3034.93 C 3556.86,2957.41 3911.82,2498.7 3911.82,1970.99 3911.82,1394.31 3487.86,900 2885.33,692.281"
         id="path8266" />
    </clipPath>
    <clipPath
       clipPathUnits="userSpaceOnUse"
       id="clipPath8274">
      <path
         d="m 1606.41,1045.08 h 1982.4 v 2150.4 h -1982.4 z"
         id="path8272" />
    </clipPath>
    <clipPath
       clipPathUnits="userSpaceOnUse"
       id="clipPath8286">
      <path
         d="M 2885.33,692.281 H 1614.85 c -1.21,0.418 -2.42,0.84 -3.64,1.258 V 3190.68 H 3034.93 C 3556.86,2957.41 3911.82,2498.7 3911.82,1970.99 3911.82,1394.31 3487.86,900 2885.33,692.281"
         id="path8284" />
    </clipPath>
    <clipPath
       clipPathUnits="userSpaceOnUse"
       id="clipPath8292">
      <path
         d="m 3584.01,1045.08 h 333.598 v 1792.8 H 3584.01 Z"
         id="path8290" />
    </clipPath>
    <clipPath
       clipPathUnits="userSpaceOnUse"
       id="clipPath8304">
      <path
         d="M 2885.33,692.281 H 1614.85 c -1.21,0.418 -2.42,0.84 -3.64,1.258 V 3190.68 H 3034.93 C 3556.86,2957.41 3911.82,2498.7 3911.82,1970.99 3911.82,1394.31 3487.86,900 2885.33,692.281"
         id="path8302" />
    </clipPath>
    <clipPath
       clipPathUnits="userSpaceOnUse"
       id="clipPath8310">
      <path
         d="m 1606.41,687.48 h 1982.4 v 362.398 h -1982.4 z"
         id="path8308" />
    </clipPath>
    <clipPath
       clipPathUnits="userSpaceOnUse"
       id="clipPath8322">
      <path
         d="m 3561.6,692.281 h -8.64 c 42.06,29.739 82.67,60.899 121.67,93.367 184.11,153.293 332.82,335.952 434.98,538.722 v -11.03 c -102.34,-199.91 -249.87,-380.09 -431.78,-531.531 -37.34,-31.09 -76.09,-60.938 -116.23,-89.528 m 548.01,1925.349 c -102.16,202.78 -250.87,385.44 -434.98,538.74 -13.94,11.6 -28.09,23.04 -42.43,34.31 h 8.07 c 12.69,-10.03 25.19,-20.17 37.56,-30.47 181.91,-151.45 329.44,-331.63 431.78,-531.55 v -11.03"
         id="path8320" />
    </clipPath>
    <clipPath
       clipPathUnits="userSpaceOnUse"
       id="clipPath7576-6">
      <path
         d="M 0,0 H 4560 V 3883 H 0 Z"
         id="path7574-7" />
    </clipPath>
    <clipPath
       clipPathUnits="userSpaceOnUse"
       id="clipPath7582-5">
      <path
         d="M 4560,0 H 0 V 3883.2 H 4560 V 0 M 229.824,1970.99 C 229.82,1507.03 456.535,1086.37 822.375,781.809 1188.22,477.23 1693.22,288.652 2250.1,288.652 c 500.06,0 958.3,152.078 1311.5,403.629 h 548.01 v 621.059 c 103.47,202.11 160.76,424.4 160.76,657.65 0,233.26 -57.29,455.55 -160.76,657.67 v 562.02 h -469.34 c -362.47,286.62 -852.11,462.7 -1390.17,462.7 -556.88,0 -1061.88,-188.59 -1427.725,-493.17 C 456.535,2855.64 229.82,2434.97 229.824,1970.99 v 0 0 0"
         id="path7580-3" />
    </clipPath>
    <clipPath
       clipPathUnits="userSpaceOnUse"
       id="clipPath7588-5">
      <path
         d="M 0,2822.4 H 1053.6 V 3888 H 0 Z"
         id="path7586-6" />
    </clipPath>
    <clipPath
       clipPathUnits="userSpaceOnUse"
       id="clipPath7600-2">
      <path
         d="M 0,0 H 4560 V 3883 H 0 Z"
         id="path7598-9" />
    </clipPath>
    <clipPath
       clipPathUnits="userSpaceOnUse"
       id="clipPath7606-1">
      <path
         d="M 4560,0 H 0 V 3883.2 H 4560 V 0 M 229.824,1970.99 C 229.82,1507.03 456.535,1086.37 822.375,781.809 1188.22,477.23 1693.22,288.652 2250.1,288.652 c 500.06,0 958.3,152.078 1311.5,403.629 h 548.01 v 621.059 c 103.47,202.11 160.76,424.4 160.76,657.65 0,233.26 -57.29,455.55 -160.76,657.67 v 562.02 h -469.34 c -362.47,286.62 -852.11,462.7 -1390.17,462.7 -556.88,0 -1061.88,-188.59 -1427.725,-493.17 C 456.535,2855.64 229.82,2434.97 229.824,1970.99 v 0 0 0"
         id="path7604-2" />
    </clipPath>
    <clipPath
       clipPathUnits="userSpaceOnUse"
       id="clipPath7612-7">
      <path
         d="m 1048.8,3175.2 h 708 v 712.801 h -708 z"
         id="path7610-0" />
    </clipPath>
    <clipPath
       clipPathUnits="userSpaceOnUse"
       id="clipPath7624-9">
      <path
         d="M 0,0 H 4560 V 3883 H 0 Z"
         id="path7622-3" />
    </clipPath>
    <clipPath
       clipPathUnits="userSpaceOnUse"
       id="clipPath7630-6">
      <path
         d="M 4560,0 H 0 V 3883.2 H 4560 V 0 M 229.824,1970.99 C 229.82,1507.03 456.535,1086.37 822.375,781.809 1188.22,477.23 1693.22,288.652 2250.1,288.652 c 500.06,0 958.3,152.078 1311.5,403.629 h 548.01 v 621.059 c 103.47,202.11 160.76,424.4 160.76,657.65 0,233.26 -57.29,455.55 -160.76,657.67 v 562.02 h -469.34 c -362.47,286.62 -852.11,462.7 -1390.17,462.7 -556.88,0 -1061.88,-188.59 -1427.725,-493.17 C 456.535,2855.64 229.82,2434.97 229.824,1970.99 v 0 0 0"
         id="path7628-0" />
    </clipPath>
    <clipPath
       clipPathUnits="userSpaceOnUse"
       id="clipPath7636-6">
      <path
         d="m 1752,3530.4 h 2812.8 v 357.602 H 1752 Z"
         id="path7634-2" />
    </clipPath>
    <clipPath
       clipPathUnits="userSpaceOnUse"
       id="clipPath7648-6">
      <path
         d="M 0,0 H 4560 V 3883 H 0 Z"
         id="path7646-1" />
    </clipPath>
    <clipPath
       clipPathUnits="userSpaceOnUse"
       id="clipPath7654-8">
      <path
         d="M 4560,0 H 0 V 3883.2 H 4560 V 0 M 229.824,1970.99 C 229.82,1507.03 456.535,1086.37 822.375,781.809 1188.22,477.23 1693.22,288.652 2250.1,288.652 c 500.06,0 958.3,152.078 1311.5,403.629 h 548.01 v 621.059 c 103.47,202.11 160.76,424.4 160.76,657.65 0,233.26 -57.29,455.55 -160.76,657.67 v 562.02 h -469.34 c -362.47,286.62 -852.11,462.7 -1390.17,462.7 -556.88,0 -1061.88,-188.59 -1427.725,-493.17 C 456.535,2855.64 229.82,2434.97 229.824,1970.99 v 0 0 0"
         id="path7652-7" />
    </clipPath>
    <clipPath
       clipPathUnits="userSpaceOnUse"
       id="clipPath7660-9">
      <path
         d="m 2803.2,3175.2 h 1761.6 v 360 H 2803.2 Z"
         id="path7658-2" />
    </clipPath>
    <clipPath
       clipPathUnits="userSpaceOnUse"
       id="clipPath7672-0">
      <path
         d="M 0,0 H 4560 V 3883 H 0 Z"
         id="path7670-2" />
    </clipPath>
    <clipPath
       clipPathUnits="userSpaceOnUse"
       id="clipPath7678-3">
      <path
         d="M 4560,0 H 0 V 3883.2 H 4560 V 0 M 229.824,1970.99 C 229.82,1507.03 456.535,1086.37 822.375,781.809 1188.22,477.23 1693.22,288.652 2250.1,288.652 c 500.06,0 958.3,152.078 1311.5,403.629 h 548.01 v 621.059 c 103.47,202.11 160.76,424.4 160.76,657.65 0,233.26 -57.29,455.55 -160.76,657.67 v 562.02 h -469.34 c -362.47,286.62 -852.11,462.7 -1390.17,462.7 -556.88,0 -1061.88,-188.59 -1427.725,-493.17 C 456.535,2855.64 229.82,2434.97 229.824,1970.99 v 0 0 0"
         id="path7676-7" />
    </clipPath>
    <clipPath
       clipPathUnits="userSpaceOnUse"
       id="clipPath7684-5">
      <path
         d="m 3856.8,2116.8 h 708 V 3180 h -708 z"
         id="path7682-9" />
    </clipPath>
    <clipPath
       clipPathUnits="userSpaceOnUse"
       id="clipPath7696-2">
      <path
         d="M 0,0 H 4560 V 3883 H 0 Z"
         id="path7694-2" />
    </clipPath>
    <clipPath
       clipPathUnits="userSpaceOnUse"
       id="clipPath7702-8">
      <path
         d="M 4560,0 H 0 V 3883.2 H 4560 V 0 M 229.824,1970.99 C 229.82,1507.03 456.535,1086.37 822.375,781.809 1188.22,477.23 1693.22,288.652 2250.1,288.652 c 500.06,0 958.3,152.078 1311.5,403.629 h 548.01 v 621.059 c 103.47,202.11 160.76,424.4 160.76,657.65 0,233.26 -57.29,455.55 -160.76,657.67 v 562.02 h -469.34 c -362.47,286.62 -852.11,462.7 -1390.17,462.7 -556.88,0 -1061.88,-188.59 -1427.725,-493.17 C 456.535,2855.64 229.82,2434.97 229.824,1970.99 v 0 0 0"
         id="path7700-9" />
    </clipPath>
    <clipPath
       clipPathUnits="userSpaceOnUse"
       id="clipPath7708-7">
      <path
         d="m 0,2469.6 h 703.199 v 357.598 H 0 Z"
         id="path7706-3" />
    </clipPath>
    <clipPath
       clipPathUnits="userSpaceOnUse"
       id="clipPath7720-6">
      <path
         d="M 0,0 H 4560 V 3883 H 0 Z"
         id="path7718-1" />
    </clipPath>
    <clipPath
       clipPathUnits="userSpaceOnUse"
       id="clipPath7726-2">
      <path
         d="M 4560,0 H 0 V 3883.2 H 4560 V 0 M 229.824,1970.99 C 229.82,1507.03 456.535,1086.37 822.375,781.809 1188.22,477.23 1693.22,288.652 2250.1,288.652 c 500.06,0 958.3,152.078 1311.5,403.629 h 548.01 v 621.059 c 103.47,202.11 160.76,424.4 160.76,657.65 0,233.26 -57.29,455.55 -160.76,657.67 v 562.02 h -469.34 c -362.47,286.62 -852.11,462.7 -1390.17,462.7 -556.88,0 -1061.88,-188.59 -1427.725,-493.17 C 456.535,2855.64 229.82,2434.97 229.824,1970.99 v 0 0 0"
         id="path7724-9" />
    </clipPath>
    <clipPath
       clipPathUnits="userSpaceOnUse"
       id="clipPath7732-3">
      <path
         d="M 0,0 H 350.398 V 2474.4 H 0 Z"
         id="path7730-1" />
    </clipPath>
    <clipPath
       clipPathUnits="userSpaceOnUse"
       id="clipPath7744-9">
      <path
         d="M 0,0 H 4560 V 3883 H 0 Z"
         id="path7742-4" />
    </clipPath>
    <clipPath
       clipPathUnits="userSpaceOnUse"
       id="clipPath7750-7">
      <path
         d="M 4560,0 H 0 V 3883.2 H 4560 V 0 M 229.824,1970.99 C 229.82,1507.03 456.535,1086.37 822.375,781.809 1188.22,477.23 1693.22,288.652 2250.1,288.652 c 500.06,0 958.3,152.078 1311.5,403.629 h 548.01 v 621.059 c 103.47,202.11 160.76,424.4 160.76,657.65 0,233.26 -57.29,455.55 -160.76,657.67 v 562.02 h -469.34 c -362.47,286.62 -852.11,462.7 -1390.17,462.7 -556.88,0 -1061.88,-188.59 -1427.725,-493.17 C 456.535,2855.64 229.82,2434.97 229.824,1970.99 v 0 0 0"
         id="path7748-8" />
    </clipPath>
    <clipPath
       clipPathUnits="userSpaceOnUse"
       id="clipPath7756-4">
      <path
         d="m 4209.6,0 h 355.199 V 2121.6 H 4209.6 Z"
         id="path7754-5" />
    </clipPath>
    <clipPath
       clipPathUnits="userSpaceOnUse"
       id="clipPath7768-0">
      <path
         d="M 0,0 H 4560 V 3883 H 0 Z"
         id="path7766-3" />
    </clipPath>
    <clipPath
       clipPathUnits="userSpaceOnUse"
       id="clipPath7774-6">
      <path
         d="M 4560,0 H 0 V 3883.2 H 4560 V 0 M 229.824,1970.99 C 229.82,1507.03 456.535,1086.37 822.375,781.809 1188.22,477.23 1693.22,288.652 2250.1,288.652 c 500.06,0 958.3,152.078 1311.5,403.629 h 548.01 v 621.059 c 103.47,202.11 160.76,424.4 160.76,657.65 0,233.26 -57.29,455.55 -160.76,657.67 v 562.02 h -469.34 c -362.47,286.62 -852.11,462.7 -1390.17,462.7 -556.88,0 -1061.88,-188.59 -1427.725,-493.17 C 456.535,2855.64 229.82,2434.97 229.824,1970.99 v 0 0 0"
         id="path7772-1" />
    </clipPath>
    <clipPath
       clipPathUnits="userSpaceOnUse"
       id="clipPath7780-0">
      <path
         d="m 3856.8,0 h 357.598 V 1766.4 H 3856.8 Z"
         id="path7778-6" />
    </clipPath>
    <clipPath
       clipPathUnits="userSpaceOnUse"
       id="clipPath7792-3">
      <path
         d="M 0,0 H 4560 V 3883 H 0 Z"
         id="path7790-2" />
    </clipPath>
    <clipPath
       clipPathUnits="userSpaceOnUse"
       id="clipPath7798-0">
      <path
         d="M 4560,0 H 0 V 3883.2 H 4560 V 0 M 229.824,1970.99 C 229.82,1507.03 456.535,1086.37 822.375,781.809 1188.22,477.23 1693.22,288.652 2250.1,288.652 c 500.06,0 958.3,152.078 1311.5,403.629 h 548.01 v 621.059 c 103.47,202.11 160.76,424.4 160.76,657.65 0,233.26 -57.29,455.55 -160.76,657.67 v 562.02 h -469.34 c -362.47,286.62 -852.11,462.7 -1390.17,462.7 -556.88,0 -1061.88,-188.59 -1427.725,-493.17 C 456.535,2855.64 229.82,2434.97 229.824,1970.99 v 0 0 0"
         id="path7796-6" />
    </clipPath>
    <clipPath
       clipPathUnits="userSpaceOnUse"
       id="clipPath7804-1">
      <path
         d="M 345.602,0 H 703.2 V 1413.6 H 345.602 Z"
         id="path7802-5" />
    </clipPath>
    <clipPath
       clipPathUnits="userSpaceOnUse"
       id="clipPath7816-5">
      <path
         d="M 0,0 H 4560 V 3883 H 0 Z"
         id="path7814-4" />
    </clipPath>
    <clipPath
       clipPathUnits="userSpaceOnUse"
       id="clipPath7822-7">
      <path
         d="M 4560,0 H 0 V 3883.2 H 4560 V 0 M 229.824,1970.99 C 229.82,1507.03 456.535,1086.37 822.375,781.809 1188.22,477.23 1693.22,288.652 2250.1,288.652 c 500.06,0 958.3,152.078 1311.5,403.629 h 548.01 v 621.059 c 103.47,202.11 160.76,424.4 160.76,657.65 0,233.26 -57.29,455.55 -160.76,657.67 v 562.02 h -469.34 c -362.47,286.62 -852.11,462.7 -1390.17,462.7 -556.88,0 -1061.88,-188.59 -1427.725,-493.17 C 456.535,2855.64 229.82,2434.97 229.824,1970.99 v 0 0 0"
         id="path7820-6" />
    </clipPath>
    <clipPath
       clipPathUnits="userSpaceOnUse"
       id="clipPath7828-5">
      <path
         d="m 698.398,0 h 355.203 V 1060.8 H 698.398 Z"
         id="path7826-6" />
    </clipPath>
    <clipPath
       clipPathUnits="userSpaceOnUse"
       id="clipPath7840-9">
      <path
         d="M 0,0 H 4560 V 3883 H 0 Z"
         id="path7838-3" />
    </clipPath>
    <clipPath
       clipPathUnits="userSpaceOnUse"
       id="clipPath7846-7">
      <path
         d="M 4560,0 H 0 V 3883.2 H 4560 V 0 M 229.824,1970.99 C 229.82,1507.03 456.535,1086.37 822.375,781.809 1188.22,477.23 1693.22,288.652 2250.1,288.652 c 500.06,0 958.3,152.078 1311.5,403.629 h 548.01 v 621.059 c 103.47,202.11 160.76,424.4 160.76,657.65 0,233.26 -57.29,455.55 -160.76,657.67 v 562.02 h -469.34 c -362.47,286.62 -852.11,462.7 -1390.17,462.7 -556.88,0 -1061.88,-188.59 -1427.725,-493.17 C 456.535,2855.64 229.82,2434.97 229.824,1970.99 v 0 0 0"
         id="path7844-4" />
    </clipPath>
    <clipPath
       clipPathUnits="userSpaceOnUse"
       id="clipPath7852-5">
      <path
         d="m 1048.8,0 h 708 v 708 h -708 z"
         id="path7850-2" />
    </clipPath>
    <clipPath
       clipPathUnits="userSpaceOnUse"
       id="clipPath7864-5">
      <path
         d="M 0,0 H 4560 V 3883 H 0 Z"
         id="path7862-4" />
    </clipPath>
    <clipPath
       clipPathUnits="userSpaceOnUse"
       id="clipPath7870-7">
      <path
         d="M 4560,0 H 0 V 3883.2 H 4560 V 0 M 229.824,1970.99 C 229.82,1507.03 456.535,1086.37 822.375,781.809 1188.22,477.23 1693.22,288.652 2250.1,288.652 c 500.06,0 958.3,152.078 1311.5,403.629 h 548.01 v 621.059 c 103.47,202.11 160.76,424.4 160.76,657.65 0,233.26 -57.29,455.55 -160.76,657.67 v 562.02 h -469.34 c -362.47,286.62 -852.11,462.7 -1390.17,462.7 -556.88,0 -1061.88,-188.59 -1427.725,-493.17 C 456.535,2855.64 229.82,2434.97 229.824,1970.99 v 0 0 0"
         id="path7868-4" />
    </clipPath>
    <clipPath
       clipPathUnits="userSpaceOnUse"
       id="clipPath7876-4">
      <path
         d="M 2452.8,0 H 3861.6 V 708 H 2452.8 Z"
         id="path7874-3" />
    </clipPath>
    <clipPath
       clipPathUnits="userSpaceOnUse"
       id="clipPath7888-0">
      <path
         d="M 0,0 H 4560 V 3883 H 0 Z"
         id="path7886-7" />
    </clipPath>
    <clipPath
       clipPathUnits="userSpaceOnUse"
       id="clipPath7894-8">
      <path
         d="M 4560,0 H 0 V 3883.2 H 4560 V 0 M 229.824,1970.99 C 229.82,1507.03 456.535,1086.37 822.375,781.809 1188.22,477.23 1693.22,288.652 2250.1,288.652 c 500.06,0 958.3,152.078 1311.5,403.629 h 548.01 v 621.059 c 103.47,202.11 160.76,424.4 160.76,657.65 0,233.26 -57.29,455.55 -160.76,657.67 v 562.02 h -469.34 c -362.47,286.62 -852.11,462.7 -1390.17,462.7 -556.88,0 -1061.88,-188.59 -1427.725,-493.17 C 456.535,2855.64 229.82,2434.97 229.824,1970.99 v 0 0 0"
         id="path7892-6" />
    </clipPath>
    <clipPath
       clipPathUnits="userSpaceOnUse"
       id="clipPath7900-8">
      <path
         d="m 1752,0 h 705.602 V 352.801 H 1752 Z"
         id="path7898-8" />
    </clipPath>
    <clipPath
       clipPathUnits="userSpaceOnUse"
       id="clipPath7950-4">
      <path
         d="M 4109.61,692.281 H 3561.6 c 40.14,28.59 78.89,58.438 116.23,89.528 181.91,151.441 329.44,331.621 431.78,531.531 V 692.281"
         id="path7948-3" />
    </clipPath>
    <clipPath
       clipPathUnits="userSpaceOnUse"
       id="clipPath7956-1">
      <path
         d="m 3561.6,692.281 h 548.008 V 1313.34 H 3561.6 Z"
         id="path7954-4" />
    </clipPath>
    <clipPath
       clipPathUnits="userSpaceOnUse"
       id="clipPath7968-9">
      <path
         d="m 3552.96,692.281 h -30.16 c 258.71,178.77 462.46,410.759 586.81,675.669 v -43.58 C 4007.45,1121.6 3858.74,938.941 3674.63,785.648 c -39,-32.468 -79.61,-63.628 -121.67,-93.367 m 556.65,1881.769 c -111.07,236.63 -285.5,446.99 -505.86,616.63 h 28.45 c 14.34,-11.27 28.49,-22.71 42.43,-34.31 184.11,-153.3 332.82,-335.96 434.98,-538.74 v -43.58"
         id="path7966-2" />
    </clipPath>
    <clipPath
       clipPathUnits="userSpaceOnUse"
       id="clipPath7980-0">
      <path
         d="m 3522.8,692.281 h -35.04 c 280.84,188.75 498.43,440.189 621.85,728.579 v -52.91 C 3985.26,1103.04 3781.51,871.051 3522.8,692.281 m 586.81,1828.859 c -110.97,259.29 -298.03,488.69 -538.77,669.54 h 32.91 c 220.36,-169.64 394.79,-380 505.86,-616.63 v -52.91"
         id="path7978-6" />
    </clipPath>
    <clipPath
       clipPathUnits="userSpaceOnUse"
       id="clipPath7992-8">
      <path
         d="m 3487.76,692.281 h -35.66 c 305,199.141 537.27,472.189 657.51,786.469 v -57.89 C 3986.19,1132.47 3768.6,881.031 3487.76,692.281 m 621.85,1770.959 c -108.76,284.29 -309.15,534.81 -572.14,727.44 h 33.37 c 240.74,-180.85 427.8,-410.25 538.77,-669.54 v -57.9"
         id="path7990-9" />
    </clipPath>
    <clipPath
       clipPathUnits="userSpaceOnUse"
       id="clipPath8004-2">
      <path
         d="m 3452.1,692.281 h -36.32 c 331.94,210.219 579.89,507.919 693.83,851.459 v -64.99 C 3989.37,1164.47 3757.1,891.422 3452.1,692.281 m 657.51,1705.979 c -103.66,312.56 -318.17,587.12 -606,792.42 h 33.86 c 262.99,-192.63 463.38,-443.15 572.14,-727.44 v -64.98"
         id="path8002-6" />
    </clipPath>
    <clipPath
       clipPathUnits="userSpaceOnUse"
       id="clipPath8016-6">
      <path
         d="m 3415.78,692.281 h -37.05 c 362.97,222.59 628.07,549.609 730.88,927.459 v -76 C 3995.67,1200.2 3747.72,902.5 3415.78,692.281 m 693.83,1629.969 c -94.07,345.74 -323.95,648.87 -640.39,868.43 h 34.39 c 287.83,-205.3 502.34,-479.86 606,-792.42 v -76.01"
         id="path8014-4" />
    </clipPath>
    <clipPath
       clipPathUnits="userSpaceOnUse"
       id="clipPath8028-9">
      <path
         d="m 3378.73,692.281 h -37.86 c 401.17,237.77 685.96,602.939 768.74,1024.229 v -96.77 C 4006.8,1241.89 3741.7,914.871 3378.73,692.281 m 730.88,1533.209 c -76.2,387.81 -323.6,728.08 -675.36,965.19 h 34.97 c 316.44,-219.56 546.32,-522.69 640.39,-868.43 v -96.76"
         id="path8026-5" />
    </clipPath>
    <clipPath
       clipPathUnits="userSpaceOnUse"
       id="clipPath8040-0">
      <path
         d="m 3340.87,692.281 h -38.74 c 463.94,265.27 776.74,700.969 807.48,1197.989 V 1716.51 C 4026.83,1295.22 3742.04,930.051 3340.87,692.281 m 768.74,1359.439 c -28.56,461.73 -300.56,870.56 -710.97,1138.96 h 35.61 c 351.76,-237.11 599.16,-577.38 675.36,-965.19 v -173.77"
         id="path8038-4" />
    </clipPath>
    <clipPath
       clipPathUnits="userSpaceOnUse"
       id="clipPath8052-8">
      <path
         d="m 3302.13,692.281 h -39.74 c 498.37,274.188 827.45,744.779 827.45,1278.709 0,497.38 -285.57,939.8 -727.51,1219.69 h 36.31 c 410.41,-268.4 682.41,-677.23 710.97,-1138.96 V 1890.27 C 4078.87,1393.25 3766.07,957.551 3302.13,692.281"
         id="path8050-7" />
    </clipPath>
    <clipPath
       clipPathUnits="userSpaceOnUse"
       id="clipPath8064-1">
      <path
         d="m 3262.39,692.281 h -40.86 c 508.3,268.41 846.06,741.049 846.06,1278.709 0,500.23 -292.3,944.14 -742.32,1219.69 h 37.06 c 441.94,-279.89 727.51,-722.31 727.51,-1219.69 0,-533.93 -329.08,-1004.521 -827.45,-1278.709"
         id="path8062-7" />
    </clipPath>
    <clipPath
       clipPathUnits="userSpaceOnUse"
       id="clipPath8076-2">
      <path
         d="m 3221.53,692.281 h -42.12 c 518.92,262.117 865.92,736.959 865.92,1278.709 0,503.27 -299.47,948.8 -757.98,1219.69 h 37.92 c 450.02,-275.55 742.32,-719.46 742.32,-1219.69 0,-537.66 -337.76,-1010.299 -846.06,-1278.709"
         id="path8074-7" />
    </clipPath>
    <clipPath
       clipPathUnits="userSpaceOnUse"
       id="clipPath8088-2">
      <path
         d="m 3179.41,692.281 h -43.59 c 530.22,255.258 887.27,732.529 887.27,1278.709 0,506.58 -307.06,953.82 -774.6,1219.69 h 38.86 c 458.51,-270.89 757.98,-716.42 757.98,-1219.69 0,-541.75 -347,-1016.592 -865.92,-1278.709"
         id="path8086-2" />
    </clipPath>
    <clipPath
       clipPathUnits="userSpaceOnUse"
       id="clipPath8100-6">
      <path
         d="m 3135.82,692.281 h -45.25 c 542.32,247.739 910.26,727.679 910.26,1278.709 0,510.1 -315.24,959.24 -792.25,1219.69 h 39.91 c 467.54,-265.87 774.6,-713.11 774.6,-1219.69 0,-546.18 -357.05,-1023.451 -887.27,-1278.709"
         id="path8098-1" />
    </clipPath>
    <clipPath
       clipPathUnits="userSpaceOnUse"
       id="clipPath8112-0">
      <path
         d="m 3090.57,692.281 h -47.23 c 555.42,239.418 935.23,722.319 935.23,1278.709 0,513.95 -323.97,965.14 -811.12,1219.69 h 41.13 c 477.01,-260.45 792.25,-709.59 792.25,-1219.69 0,-551.03 -367.94,-1030.97 -910.26,-1278.709"
         id="path8110-6" />
    </clipPath>
    <clipPath
       clipPathUnits="userSpaceOnUse"
       id="clipPath8124-1">
      <path
         d="m 4109.61,2628.66 c -102.34,199.92 -249.87,380.1 -431.78,531.55 -12.37,10.3 -24.87,20.44 -37.56,30.47 h 469.34 v -562.02"
         id="path8122-5" />
    </clipPath>
    <clipPath
       clipPathUnits="userSpaceOnUse"
       id="clipPath8136-9">
      <path
         d="m 3043.34,692.281 h -49.58 c 569.65,230.129 962.57,716.349 962.57,1278.709 0,518.11 -333.45,971.56 -831.38,1219.69 h 42.5 c 487.15,-254.55 811.12,-705.74 811.12,-1219.69 0,-556.39 -379.81,-1039.291 -935.23,-1278.709"
         id="path8134-4" />
    </clipPath>
    <clipPath
       clipPathUnits="userSpaceOnUse"
       id="clipPath8148-9">
      <path
         d="m 2993.76,692.281 h -52.43 c 585.27,219.66 992.74,709.639 992.74,1278.709 0,522.66 -343.75,978.61 -853.2,1219.69 h 44.08 c 497.93,-248.13 831.38,-701.58 831.38,-1219.69 0,-562.36 -392.92,-1048.58 -962.57,-1278.709"
         id="path8146-0" />
    </clipPath>
    <clipPath
       clipPathUnits="userSpaceOnUse"
       id="clipPath8160-9">
      <path
         d="m 2941.33,692.281 h -56 C 3487.86,900 3911.82,1394.31 3911.82,1970.99 c 0,527.71 -354.96,986.42 -876.89,1219.69 h 45.94 c 509.45,-241.08 853.2,-697.03 853.2,-1219.69 0,-569.07 -407.47,-1059.049 -992.74,-1278.709 m -1326.48,0 h -3.64 v 1.258 c 1.22,-0.418 2.43,-0.84 3.64,-1.258"
         id="path8158-1" />
    </clipPath>
    <clipPath
       clipPathUnits="userSpaceOnUse"
       id="clipPath8166-7">
      <path
         d="m 2936.01,2833.08 h 669.598 v 362.398 H 2936.01 Z"
         id="path8164-7" />
    </clipPath>
    <clipPath
       clipPathUnits="userSpaceOnUse"
       id="clipPath8178-1">
      <path
         d="m 2941.33,692.281 h -56 C 3487.86,900 3911.82,1394.31 3911.82,1970.99 c 0,527.71 -354.96,986.42 -876.89,1219.69 h 45.94 c 509.45,-241.08 853.2,-697.03 853.2,-1219.69 0,-569.07 -407.47,-1059.049 -992.74,-1278.709 m -1326.48,0 h -3.64 v 1.258 c 1.22,-0.418 2.43,-0.84 3.64,-1.258"
         id="path8176-1" />
    </clipPath>
    <clipPath
       clipPathUnits="userSpaceOnUse"
       id="clipPath8184-5">
      <path
         d="m 3269.61,2475.48 h 669.602 v 362.398 H 3269.61 Z"
         id="path8182-9" />
    </clipPath>
    <clipPath
       clipPathUnits="userSpaceOnUse"
       id="clipPath8196-7">
      <path
         d="m 2941.33,692.281 h -56 C 3487.86,900 3911.82,1394.31 3911.82,1970.99 c 0,527.71 -354.96,986.42 -876.89,1219.69 h 45.94 c 509.45,-241.08 853.2,-697.03 853.2,-1219.69 0,-569.07 -407.47,-1059.049 -992.74,-1278.709 m -1326.48,0 h -3.64 v 1.258 c 1.22,-0.418 2.43,-0.84 3.64,-1.258"
         id="path8194-7" />
    </clipPath>
    <clipPath
       clipPathUnits="userSpaceOnUse"
       id="clipPath8202-6">
      <path
         d="m 3600.81,1045.08 h 338.402 v 1435.2 H 3600.81 Z"
         id="path8200-7" />
    </clipPath>
    <clipPath
       clipPathUnits="userSpaceOnUse"
       id="clipPath8214-3">
      <path
         d="m 2941.33,692.281 h -56 C 3487.86,900 3911.82,1394.31 3911.82,1970.99 c 0,527.71 -354.96,986.42 -876.89,1219.69 h 45.94 c 509.45,-241.08 853.2,-697.03 853.2,-1219.69 0,-569.07 -407.47,-1059.049 -992.74,-1278.709 m -1326.48,0 h -3.64 v 1.258 c 1.22,-0.418 2.43,-0.84 3.64,-1.258"
         id="path8212-6" />
    </clipPath>
    <clipPath
       clipPathUnits="userSpaceOnUse"
       id="clipPath8220-5">
      <path
         d="m 3269.61,687.48 h 336 v 720 h -336 z"
         id="path8218-6" />
    </clipPath>
    <clipPath
       clipPathUnits="userSpaceOnUse"
       id="clipPath8232-3">
      <path
         d="m 2941.33,692.281 h -56 C 3487.86,900 3911.82,1394.31 3911.82,1970.99 c 0,527.71 -354.96,986.42 -876.89,1219.69 h 45.94 c 509.45,-241.08 853.2,-697.03 853.2,-1219.69 0,-569.07 -407.47,-1059.049 -992.74,-1278.709 m -1326.48,0 h -3.64 v 1.258 c 1.22,-0.418 2.43,-0.84 3.64,-1.258"
         id="path8230-9" />
    </clipPath>
    <clipPath
       clipPathUnits="userSpaceOnUse"
       id="clipPath8238-4">
      <path
         d="m 1606.41,687.48 h 338.398 v 362.398 H 1606.41 Z"
         id="path8236-8" />
    </clipPath>
    <clipPath
       clipPathUnits="userSpaceOnUse"
       id="clipPath8250-1">
      <path
         d="m 2941.33,692.281 h -56 C 3487.86,900 3911.82,1394.31 3911.82,1970.99 c 0,527.71 -354.96,986.42 -876.89,1219.69 h 45.94 c 509.45,-241.08 853.2,-697.03 853.2,-1219.69 0,-569.07 -407.47,-1059.049 -992.74,-1278.709 m -1326.48,0 h -3.64 v 1.258 c 1.22,-0.418 2.43,-0.84 3.64,-1.258"
         id="path8248-2" />
    </clipPath>
    <clipPath
       clipPathUnits="userSpaceOnUse"
       id="clipPath8256-9">
      <path
         d="m 2604.81,687.48 h 669.602 v 362.398 H 2604.81 Z"
         id="path8254-3" />
    </clipPath>
    <clipPath
       clipPathUnits="userSpaceOnUse"
       id="clipPath8268-9">
      <path
         d="M 2885.33,692.281 H 1614.85 c -1.21,0.418 -2.42,0.84 -3.64,1.258 V 3190.68 H 3034.93 C 3556.86,2957.41 3911.82,2498.7 3911.82,1970.99 3911.82,1394.31 3487.86,900 2885.33,692.281"
         id="path8266-0" />
    </clipPath>
    <clipPath
       clipPathUnits="userSpaceOnUse"
       id="clipPath8274-8">
      <path
         d="m 1606.41,1045.08 h 1982.4 v 2150.4 h -1982.4 z"
         id="path8272-8" />
    </clipPath>
    <clipPath
       clipPathUnits="userSpaceOnUse"
       id="clipPath8286-5">
      <path
         d="M 2885.33,692.281 H 1614.85 c -1.21,0.418 -2.42,0.84 -3.64,1.258 V 3190.68 H 3034.93 C 3556.86,2957.41 3911.82,2498.7 3911.82,1970.99 3911.82,1394.31 3487.86,900 2885.33,692.281"
         id="path8284-0" />
    </clipPath>
    <clipPath
       clipPathUnits="userSpaceOnUse"
       id="clipPath8292-9">
      <path
         d="m 3584.01,1045.08 h 333.598 v 1792.8 H 3584.01 Z"
         id="path8290-6" />
    </clipPath>
    <clipPath
       clipPathUnits="userSpaceOnUse"
       id="clipPath8304-3">
      <path
         d="M 2885.33,692.281 H 1614.85 c -1.21,0.418 -2.42,0.84 -3.64,1.258 V 3190.68 H 3034.93 C 3556.86,2957.41 3911.82,2498.7 3911.82,1970.99 3911.82,1394.31 3487.86,900 2885.33,692.281"
         id="path8302-8" />
    </clipPath>
    <clipPath
       clipPathUnits="userSpaceOnUse"
       id="clipPath8310-5">
      <path
         d="m 1606.41,687.48 h 1982.4 v 362.398 h -1982.4 z"
         id="path8308-6" />
    </clipPath>
    <clipPath
       clipPathUnits="userSpaceOnUse"
       id="clipPath8322-1">
      <path
         d="m 3561.6,692.281 h -8.64 c 42.06,29.739 82.67,60.899 121.67,93.367 184.11,153.293 332.82,335.952 434.98,538.722 v -11.03 c -102.34,-199.91 -249.87,-380.09 -431.78,-531.531 -37.34,-31.09 -76.09,-60.938 -116.23,-89.528 m 548.01,1925.349 c -102.16,202.78 -250.87,385.44 -434.98,538.74 -13.94,11.6 -28.09,23.04 -42.43,34.31 h 8.07 c 12.69,-10.03 25.19,-20.17 37.56,-30.47 181.91,-151.45 329.44,-331.63 431.78,-531.55 v -11.03"
         id="path8320-1" />
    </clipPath>
  </defs>
  <sodipodi:namedview
     id="namedview7560"
     pagecolor="#ffffff"
     bordercolor="#000000"
     borderopacity="0.25"
     inkscape:showpageshadow="2"
     inkscape:pageopacity="0.0"
     inkscape:pagecheckerboard="0"
     inkscape:deskcolor="#d1d1d1"
     showgrid="false"
     inkscape:zoom="1.0390914"
     inkscape:cx="80.358664"
     inkscape:cy="60.148701"
     inkscape:window-width="1848"
     inkscape:window-height="1043"
     inkscape:window-x="1438"
     inkscape:window-y="0"
     inkscape:window-maximized="1"
     inkscape:current-layer="g7566">
    <inkscape:page
       x="0"
       y="0"
       id="page7564"
       width="384.67682"
       height="384.67682"
       margin="0"
       bleed="0" />
  </sodipodi:namedview>
  <g
     id="g7566"
     inkscape:groupmode="layer"
     inkscape:label="Page 1"
     transform="matrix(1.3333333,0,0,-1.3333333,984.2995,250.67407)">
    <g
       id="g1">
      <circle
         style="fill:#94d38b;fill-opacity:1;stroke-width:0.75"
         id="path11407-36"
         cx="-593.97083"
         cy="-43.751743"
         r="144.25381"
         transform="scale(1,-1)" />
      <circle
         style="fill:#f7f686;stroke-width:0.540112"
         id="path11407"
         cx="-593.97083"
         cy="-82.68586"
         r="103.88428"
         transform="scale(1,-1)" />
      <circle
         style="fill:#90cbf0;fill-opacity:1;stroke-width:0.342587"
         id="path11407-3"
         cx="-593.97083"
         cy="-118.79954"
         r="65.89254"
         transform="scale(1,-1)" />
      <text
         xml:space="preserve"
         style="font-variant:normal;font-weight:normal;font-size:7.99999px;font-family:ArialMT;-inkscape-font-specification:ArialMT;text-align:start;writing-mode:lr-tb;text-anchor:start;fill:#3f60b6;fill-opacity:1;fill-rule:nonzero;stroke:none;stroke-width:1"
         id="text20116-1-3-7-7-1-6-3-0-89"
         x="-594.00208"
         y="-44.112606"
         transform="scale(1,-1)"><tspan
           sodipodi:role="line"
           style="font-style:normal;font-variant:normal;font-weight:bold;font-stretch:normal;font-family:sans-serif;-inkscape-font-specification:'sans-serif Bold';text-align:center;text-anchor:middle;stroke-width:1"
           x="-594.00208"
           y="-44.112606"
           id="tspan4232-0-4-4-4-4-8-8-0">Poda pienidza w znaczeniu</tspan><tspan
           sodipodi:role="line"
           style="font-style:normal;font-variant:normal;font-weight:bold;font-stretch:normal;font-family:sans-serif;-inkscape-font-specification:'sans-serif Bold';text-align:center;text-anchor:middle;stroke-width:1"
           x="-594.00208"
           y="-33.985615"
           id="tspan2367">szerokim  M2</tspan></text>
      <text
         xml:space="preserve"
         style="font-variant:normal;font-weight:normal;font-size:7.99999px;font-family:ArialMT;-inkscape-font-specification:ArialMT;text-align:start;writing-mode:lr-tb;text-anchor:start;fill:#3f60b6;fill-opacity:1;fill-rule:nonzero;stroke:none;stroke-width:1"
         id="text20116-1-3-7-7-1-6-3-0-89-0"
         x="-639.12897"
         y="-20.033016"
         transform="scale(1,-1)"><tspan
           sodipodi:role="line"
           style="font-style:normal;font-variant:normal;font-weight:normal;font-stretch:normal;font-family:sans-serif;-inkscape-font-specification:sans-serif;text-align:start;text-anchor:start;stroke-width:1"
           x="-639.12897"
           y="-20.033016"
           id="tspan19981-6-7"> Depozyty terminowe </tspan><tspan
           sodipodi:role="line"
           style="font-style:normal;font-variant:normal;font-weight:normal;font-stretch:normal;font-family:sans-serif;-inkscape-font-specification:sans-serif;text-align:start;text-anchor:start;stroke-width:1"
           x="-639.12897"
           y="-9.9060259"
           id="tspan19983-87-5"> Lokaty bankowe </tspan><tspan
           sodipodi:role="line"
           style="font-style:normal;font-variant:normal;font-weight:normal;font-stretch:normal;font-family:sans-serif;-inkscape-font-specification:sans-serif;text-align:start;text-anchor:start;stroke-width:1"
           x="-639.12897"
           y="0.22096485"
           id="tspan19987-0-9"> Konta i subkonta</tspan><tspan
           sodipodi:role="line"
           style="font-style:normal;font-variant:normal;font-weight:normal;font-stretch:normal;font-family:sans-serif;-inkscape-font-specification:sans-serif;text-align:start;text-anchor:start;stroke-width:1"
           x="-639.12897"
           y="10.347956"
           id="tspan2367-2">   oszczdnociowe</tspan></text>
      <text
         xml:space="preserve"
         style="font-variant:normal;font-weight:normal;font-size:7.99999px;font-family:ArialMT;-inkscape-font-specification:ArialMT;text-align:start;writing-mode:lr-tb;text-anchor:start;fill:#3f60b6;fill-opacity:1;fill-rule:nonzero;stroke:none;stroke-width:1"
         id="text20116-1-3-7-7-1-6-3-0-89-7"
         x="-699.9707"
         y="32.624508"
         transform="scale(1,-1)"><tspan
           sodipodi:role="line"
           style="font-style:normal;font-variant:normal;font-weight:bold;font-stretch:normal;font-family:sans-serif;-inkscape-font-specification:'sans-serif Bold';text-align:start;text-anchor:start;stroke-width:1"
           x="-699.9707"
           y="32.624508"
           id="tspan2353">Poda pienidza w najszerszym znaczeniu  M3</tspan></text>
      <text
         xml:space="preserve"
         style="font-variant:normal;font-weight:normal;font-size:7.99999px;font-family:ArialMT;-inkscape-font-specification:ArialMT;text-align:start;writing-mode:lr-tb;text-anchor:start;fill:#3f60b6;fill-opacity:1;fill-rule:nonzero;stroke:none;stroke-width:1"
         id="text20116-1-3-7-7-1-6-3-0-89-7-2"
         x="-682.20703"
         y="48.19038"
         transform="scale(1,-1)"><tspan
           sodipodi:role="line"
           style="font-style:normal;font-variant:normal;font-weight:normal;font-stretch:normal;font-family:sans-serif;-inkscape-font-specification:sans-serif;text-align:start;text-anchor:start;stroke-width:1"
           x="-682.20703"
           y="48.19038"
           id="tspan19981-6-3-9"> Operacje z przyrzeczeniem odkupu</tspan><tspan
           sodipodi:role="line"
           style="font-style:normal;font-variant:normal;font-weight:normal;font-stretch:normal;font-family:sans-serif;-inkscape-font-specification:sans-serif;text-align:start;text-anchor:start;stroke-width:1"
           x="-682.20703"
           y="58.317371"
           id="tspan19987-0-6-7"> Dune papiery wartociowe z pierwotnym</tspan><tspan
           sodipodi:role="line"
           style="font-style:normal;font-variant:normal;font-weight:normal;font-stretch:normal;font-family:sans-serif;-inkscape-font-specification:sans-serif;text-align:start;text-anchor:start;stroke-width:1"
           x="-682.20703"
           y="68.444359"
           id="tspan2353-3">   terminem wykupu do dwch lat wcznie</tspan></text>
      <text
         xml:space="preserve"
         style="font-variant:normal;font-weight:normal;font-size:7.99999px;font-family:ArialMT;-inkscape-font-specification:ArialMT;text-align:start;writing-mode:lr-tb;text-anchor:start;fill:#3f60b6;fill-opacity:1;fill-rule:nonzero;stroke:none;stroke-width:1"
         id="text20116-1-3-7-7-1-6-3-0-4-3"
         x="-594.02356"
         y="-156.8665"
         transform="scale(1,-1)"><tspan
           sodipodi:role="line"
           style="font-style:normal;font-variant:normal;font-weight:bold;font-stretch:normal;font-family:sans-serif;-inkscape-font-specification:'sans-serif Bold';text-align:center;text-anchor:middle;stroke-width:1"
           x="-594.02356"
           y="-156.8665"
           id="tspan4232-0-4-4-4-4-8-8-6-80">Poda pienidza</tspan><tspan
           sodipodi:role="line"
           style="font-style:normal;font-variant:normal;font-weight:bold;font-stretch:normal;font-family:sans-serif;-inkscape-font-specification:'sans-serif Bold';text-align:center;text-anchor:middle;stroke-width:1"
           x="-594.02356"
           y="-146.73952"
           id="tspan2373">w znaczeniu</tspan><tspan
           sodipodi:role="line"
           style="font-style:normal;font-variant:normal;font-weight:bold;font-stretch:normal;font-family:sans-serif;-inkscape-font-specification:'sans-serif Bold';text-align:center;text-anchor:middle;stroke-width:1"
           x="-594.02356"
           y="-136.61252"
           id="tspan2371">wskim  M1</tspan><tspan
           sodipodi:role="line"
           style="font-style:normal;font-variant:normal;font-weight:normal;font-stretch:normal;font-family:sans-serif;-inkscape-font-specification:sans-serif;text-align:center;text-anchor:middle;stroke-width:1"
           x="-594.02356"
           y="-126.48553"
           id="tspan2365" /></text>
      <text
         xml:space="preserve"
         style="font-variant:normal;font-weight:normal;font-size:7.99999px;font-family:ArialMT;-inkscape-font-specification:ArialMT;text-align:start;writing-mode:lr-tb;text-anchor:start;fill:#3f60b6;fill-opacity:1;fill-rule:nonzero;stroke:none;stroke-width:1"
         id="text20116-1-3-7-7-1-6-3-0-4-3-0"
         x="-642.74225"
         y="-120.88649"
         transform="scale(1,-1)"><tspan
           sodipodi:role="line"
           style="font-style:normal;font-variant:normal;font-weight:normal;font-stretch:normal;font-family:sans-serif;-inkscape-font-specification:sans-serif;text-align:start;text-anchor:start;stroke-width:1"
           x="-642.74225"
           y="-120.88649"
           id="tspan19987-5-4-1"> Gotwka w obiegu </tspan><tspan
           sodipodi:role="line"
           style="font-style:normal;font-variant:normal;font-weight:normal;font-stretch:normal;font-family:sans-serif;-inkscape-font-specification:sans-serif;text-align:start;text-anchor:start;stroke-width:1"
           x="-642.74225"
           y="-110.7595"
           id="tspan2296-8"> Gotwka w posiadaniu</tspan><tspan
           sodipodi:role="line"
           style="font-style:normal;font-variant:normal;font-weight:normal;font-stretch:normal;font-family:sans-serif;-inkscape-font-specification:sans-serif;text-align:start;text-anchor:start;stroke-width:1"
           x="-642.74225"
           y="-100.63251"
           id="tspan2361-7">   bankw komercyjnych</tspan><tspan
           sodipodi:role="line"
           style="font-style:normal;font-variant:normal;font-weight:normal;font-stretch:normal;font-family:sans-serif;-inkscape-font-specification:sans-serif;text-align:start;text-anchor:start;stroke-width:1"
           x="-642.74225"
           y="-90.505516"
           id="tspan2298-9"> Depozyty dostpne</tspan><tspan
           sodipodi:role="line"
           style="font-style:normal;font-variant:normal;font-weight:normal;font-stretch:normal;font-family:sans-serif;-inkscape-font-specification:sans-serif;text-align:start;text-anchor:start;stroke-width:1"
           x="-642.74225"
           y="-80.378525"
           id="tspan2365-2">   na danie (biece)</tspan></text>
    </g>
  </g>
</svg>
