<?xml version="1.0" encoding="UTF-8" standalone="no"?>
<!-- Created with Inkscape (http://www.inkscape.org/) -->

<svg
   version="1.1"
   id="svg2"
   xml:space="preserve"
   width="294.90665"
   height="210.12801"
   viewBox="0 0 294.90664 210.128"
   sodipodi:docname="CNX_Econv1-2_AppA_A5.svg"
   inkscape:version="1.3 (1:1.3+202307231459+0e150ed6c4)"
   xmlns:inkscape="http://www.inkscape.org/namespaces/inkscape"
   xmlns:sodipodi="http://sodipodi.sourceforge.net/DTD/sodipodi-0.dtd"
   xmlns="http://www.w3.org/2000/svg"
   xmlns:svg="http://www.w3.org/2000/svg"
   xmlns:rdf="http://www.w3.org/1999/02/22-rdf-syntax-ns#"
   xmlns:cc="http://creativecommons.org/ns#"
   xmlns:dc="http://purl.org/dc/elements/1.1/"><metadata
     id="metadata8"><rdf:RDF><cc:Work
         rdf:about=""><dc:format>image/svg+xml</dc:format><dc:type
           rdf:resource="http://purl.org/dc/dcmitype/StillImage" /><dc:title /></cc:Work></rdf:RDF></metadata><defs
     id="defs6">&#10;&#10;&#10;&#10;&#10;&#10;&#10;&#10;&#10;&#10;&#10;&#10;&#10;&#10;&#10;&#10;&#10;&#10;&#10;</defs><sodipodi:namedview
     pagecolor="#ffffff"
     bordercolor="#666666"
     borderopacity="1"
     objecttolerance="10"
     gridtolerance="10"
     guidetolerance="10"
     inkscape:pageopacity="0"
     inkscape:pageshadow="2"
     inkscape:window-width="1848"
     inkscape:window-height="1043"
     id="namedview4"
     showgrid="false"
     inkscape:snap-bbox="true"
     inkscape:bbox-paths="true"
     inkscape:bbox-nodes="true"
     inkscape:snap-bbox-edge-midpoints="true"
     inkscape:snap-bbox-midpoints="true"
     showguides="true"
     inkscape:guide-bbox="true"
     inkscape:zoom="1.5635943"
     inkscape:cx="-43.489541"
     inkscape:cy="93.054827"
     inkscape:window-x="1438"
     inkscape:window-y="0"
     inkscape:window-maximized="1"
     inkscape:current-layer="g10"
     inkscape:showpageshadow="2"
     inkscape:pagecheckerboard="0"
     inkscape:deskcolor="#d1d1d1"><sodipodi:guide
       position="34.031679,29.653137"
       orientation="0,-1"
       id="guide1"
       inkscape:locked="false" /><sodipodi:guide
       position="31.461679,32.223136"
       orientation="1,0"
       id="guide2"
       inkscape:locked="false" /><sodipodi:guide
       position="26.32168,27.083137"
       orientation="1,0"
       id="guide3"
       inkscape:locked="false" /><sodipodi:guide
       position="28.89168,24.513137"
       orientation="0,-1"
       id="guide4"
       inkscape:locked="false" /><sodipodi:guide
       position="157.34771,16.765203"
       orientation="0,-1"
       id="guide5"
       inkscape:locked="false" /><sodipodi:guide
       position="20.60293,60.76748"
       orientation="1,0"
       id="guide6"
       inkscape:locked="false" /><sodipodi:guide
       position="10.322917,45.601223"
       orientation="1,0"
       id="guide7"
       inkscape:locked="false" /><sodipodi:guide
       position="66.180571,6.4851881"
       orientation="0,-1"
       id="guide8"
       inkscape:locked="false" /></sodipodi:namedview><g
     id="g10"
     inkscape:groupmode="layer"
     inkscape:label="ink_ext_XXXXXX"
     transform="matrix(1.3333333,0,0,-1.3333333,-0.46712747,208.3578)"><g
       id="g8"><text
         y="6.4284706"
         x="42.143772"
         id="text18"
         style="font-variant:normal;font-weight:bold;font-size:8px;font-family:Arial;-inkscape-font-specification:Arial-BoldMT;writing-mode:lr-tb;fill:#3f60b6;fill-opacity:1;fill-rule:nonzero;stroke:none"
         transform="matrix(0,1,1,0,0,0)"><tspan
           style="font-style:normal;font-variant:normal;font-weight:bold;font-stretch:normal;font-family:sans-serif;-inkscape-font-specification:'sans-serif Bold'"
           y="6.4284706"
           x="42.143772"
           id="tspan16"
           sodipodi:role="line">Stopa bezrobocia (%)</tspan></text><text
         y="1.2143711"
         x="110.33513"
         id="text22"
         style="font-variant:normal;font-weight:bold;font-size:8px;font-family:Arial;-inkscape-font-specification:Arial-BoldMT;writing-mode:lr-tb;fill:#3f60b6;fill-opacity:1;fill-rule:nonzero;stroke:none"
         transform="scale(1,-1)"><tspan
           style="font-style:normal;font-variant:normal;font-weight:bold;font-stretch:normal;font-family:sans-serif;-inkscape-font-specification:'sans-serif Bold'"
           y="1.2143711"
           x="110.33513"
           id="tspan20"
           sodipodi:role="line">Rok</tspan></text><path
         d="M 28.059524,26.344704 V 154.2905"
         style="fill:none;stroke:#3f60b6;stroke-width:0.5;stroke-linecap:butt;stroke-linejoin:miter;stroke-miterlimit:4;stroke-dasharray:none;stroke-opacity:1"
         id="path26"
         inkscape:connector-curvature="0" /><path
         d="m 23.946605,154.29052 h 4.362919 m -4.362919,-21.25166 h 4.362919 m -4.362919,-21.35864 h 4.362919 M 23.946605,90.321775 h 4.362919 M 23.946605,68.963028 h 4.362919 M 23.946605,47.710475 h 4.362919 M 23.946605,26.352829 h 4.362919"
         style="fill:none;stroke:#3f60b6;stroke-width:0.516267;stroke-linecap:butt;stroke-linejoin:miter;stroke-miterlimit:4;stroke-dasharray:none;stroke-opacity:1"
         id="path28"
         inkscape:connector-curvature="0"
         sodipodi:nodetypes="cccccccccccccc" /><path
         d="M 28.059524,26.344704 H 210.47402"
         style="fill:none;stroke:#3f60b6;stroke-width:0.5;stroke-linecap:butt;stroke-linejoin:miter;stroke-miterlimit:4;stroke-dasharray:none;stroke-opacity:1"
         id="path30"
         inkscape:connector-curvature="0" /><path
         d="m 210.47402,26.594704 v -4.355 m -20.292,4.355 v -4.355 m -20.292,4.355 v -4.355 m -20.186,4.355 v -4.355 m -20.292,4.355 v -4.355 m -20.292,4.355 v -4.355 m -20.292896,4.355 v -4.355 m -20.2906,4.355 v -4.355 m -20.186,4.355 v -4.355 m -20.291,4.355 v -4.355"
         style="fill:none;stroke:#3f60b6;stroke-width:0.515836;stroke-linecap:butt;stroke-linejoin:miter;stroke-miterlimit:4;stroke-dasharray:none;stroke-opacity:1"
         id="path32"
         inkscape:connector-curvature="0"
         sodipodi:nodetypes="cccccccccccccccccccc" /><path
         d="m 48.322424,117.0015 c 1.3504,-2.845 2.7012,-6.045 4.0528,-8.535 1.3515,-2.489 2.7019,-3.556 4.0539,-6.401 1.3511,-2.844996 2.7019,-8.534496 4.0527,-10.668496 1.2254,-1.9347 2.8277,-3.907 4.0535,-2.1336 1.3508,1.9559 2.7024,10.846096 4.0535,13.869096 0.8559,1.915 3.1977,1.452 4.0539,4.268 1.3504,4.445 2.7012,18.847 4.0528,22.404 0.6843,1.8 3.3703,0.914 4.0527,-1.068 1.3516,-3.911 2.7031,-18.136 4.0535,-22.403 0.7793,-2.462 3.2738,-2.688 4.0539,-3.201 1.3504,-0.889 2.7024,-0.355 4.0535,-2.134 1.3508,-1.777996 2.7012,-5.867496 4.0532,-8.534296 1.3511,-2.6676 2.7017,-5.8679 4.052696,-7.4695 1.351,-1.5984 2.703,-2.3094 4.054,-2.1328 1.108,0.1465 2.946,0.8672 4.053,3.2011 1.351,2.845 2.702,10.4903 4.054,13.8685 1.351,3.378996 2.701,6.401996 4.053,6.401996 1.351,0 2.702,-3.912 4.053,-6.401996 1.351,-2.4888 2.703,-6.2227 4.053,-8.5345 1.352,-2.3113 2.702,-4.0886 4.054,-5.334 1.35,-1.2449 2.702,-0.8886 4.054,-2.1328 1.35,-1.2449 2.702,-3.7343 4.052,-5.3359 1.352,-1.6004 2.702,-3.0223 4.054,-4.2676 1.351,-1.2441 2.702,-2.3113 4.053,-3.1992 1.351,-0.8906 2.703,-3.0234 4.053,-2.1348 1.352,0.8899 2.703,4.2676 4.054,7.4668 1.351,3.2032 2.702,9.4258 4.053,11.7375 1.156,1.977 2.897,2.5899 4.054,2.1332 1.35,-0.5336 2.702,-3.7339 4.052,-5.3355 1.352,-1.5984 2.703,-2.666 4.054,-4.2676 1.352,-1.5984 2.702,-4.4441 4.054,-5.332 1.084,-0.7149 2.968,-1.7129 4.052,0 1.073,1.6914 2.983,6.1738 4.054,12.8019 1.351,8.3563 2.702,30.582496 4.054,37.339496 0.506,2.532 3.547,3.467 4.053,3.2 1.351,-0.711 2.702,-4.8 4.053,-7.467 1.351,-2.668 2.702,-5.868 4.054,-8.535 1.351,-2.668 2.702,-4.089 4.053,-7.468 1.351,-3.378 2.702,-8.534696 4.054,-12.802296"
         style="fill:none;stroke:#3f60b6;stroke-width:0.5;stroke-linecap:butt;stroke-linejoin:miter;stroke-miterlimit:4;stroke-dasharray:none;stroke-opacity:1"
         id="path34"
         inkscape:connector-curvature="0" /><path
         d="m 50.128324,117.0705 c 0,-1.07 -0.8672,-1.938 -1.9375,-1.938 -1.0703,0 -1.9375,0.868 -1.9375,1.938 0,1.07 0.8672,1.939 1.9375,1.939 1.0703,0 1.9375,-0.869 1.9375,-1.939 v 0"
         style="fill:#3f60b6;fill-opacity:1;fill-rule:nonzero;stroke:none;stroke-width:0.1"
         id="path36"
         inkscape:connector-curvature="0" /><path
         d="m 54.188424,108.5265 c 0,-1.07 -0.8679,-1.938 -1.939,-1.938 -1.0715,0 -1.9399,0.868 -1.9399,1.938 0,1.071 0.8684,1.939 1.9399,1.939 1.0711,0 1.939,-0.868 1.939,-1.939 v 0"
         style="fill:#3f60b6;fill-opacity:1;fill-rule:nonzero;stroke:none;stroke-width:0.1"
         id="path38"
         inkscape:connector-curvature="0" /><path
         d="m 58.245524,102.2255 c 0,-1.071 -0.8664,-1.938 -1.9375,-1.938 -1.0703,0 -1.9375,0.867 -1.9375,1.938 0,1.071 0.8672,1.938 1.9375,1.938 1.0711,0 1.9375,-0.867 1.9375,-1.938 v 0"
         style="fill:#3f60b6;fill-opacity:1;fill-rule:nonzero;stroke:none;stroke-width:0.1"
         id="path40"
         inkscape:connector-curvature="0" /><path
         d="m 62.304124,91.545504 c 0,-1.0707 -0.8672,-1.9383 -1.9375,-1.9383 -1.0715,0 -1.9375,0.8676 -1.9375,1.9383 0,1.0703 0.866,1.9386 1.9375,1.9386 1.0703,0 1.9375,-0.8683 1.9375,-1.9386 v 0"
         style="fill:#3f60b6;fill-opacity:1;fill-rule:nonzero;stroke:none;stroke-width:0.1"
         id="path42"
         inkscape:connector-curvature="0" /><path
         d="m 66.362724,89.409504 c 0,-1.0699 -0.8672,-1.9382 -1.9387,-1.9382 -1.0711,0 -1.9375,0.8683 -1.9375,1.9382 0,1.0703 0.8664,1.9383 1.9375,1.9383 1.0715,0 1.9387,-0.868 1.9387,-1.9383 v 0"
         style="fill:#3f60b6;fill-opacity:1;fill-rule:nonzero;stroke:none;stroke-width:0.1"
         id="path44"
         inkscape:connector-curvature="0" /><path
         d="m 70.421324,103.1865 c 0,-1.07 -0.8672,-1.938 -1.9375,-1.938 -1.0723,0 -1.9395,0.868 -1.9395,1.938 0,1.071 0.8672,1.939 1.9395,1.939 1.0703,0 1.9375,-0.868 1.9375,-1.939 v 0"
         style="fill:#3f60b6;fill-opacity:1;fill-rule:nonzero;stroke:none;stroke-width:0.1"
         id="path46"
         inkscape:connector-curvature="0" /><path
         d="m 74.479524,107.4585 c 0,-1.07 -0.8668,-1.938 -1.9375,-1.938 -1.0711,0 -1.9383,0.868 -1.9383,1.938 0,1.071 0.8672,1.939 1.9383,1.939 1.0707,0 1.9375,-0.868 1.9375,-1.939 v 0"
         style="fill:#3f60b6;fill-opacity:1;fill-rule:nonzero;stroke:none;stroke-width:0.1"
         id="path48"
         inkscape:connector-curvature="0" /><path
         d="m 78.537324,129.8865 c 0,-1.07 -0.8672,-1.938 -1.9375,-1.938 -1.0711,0 -1.9383,0.868 -1.9383,1.938 0,1.071 0.8672,1.939 1.9383,1.939 1.0703,0 1.9375,-0.868 1.9375,-1.939 v 0"
         style="fill:#3f60b6;fill-opacity:1;fill-rule:nonzero;stroke:none;stroke-width:0.1"
         id="path50"
         inkscape:connector-curvature="0" /><path
         d="m 82.596624,128.8185 c 0,-1.07 -0.8671,-1.938 -1.939,-1.938 -1.0703,0 -1.9375,0.868 -1.9375,1.938 0,1.071 0.8672,1.939 1.9375,1.939 1.0719,0 1.939,-0.868 1.939,-1.939 v 0"
         style="fill:#3f60b6;fill-opacity:1;fill-rule:nonzero;stroke:none;stroke-width:0.1"
         id="path52"
         inkscape:connector-curvature="0" /><path
         d="m 86.654524,106.3905 c 0,-1.07 -0.8665,-1.938 -1.9375,-1.938 -1.0711,0 -1.9383,0.868 -1.9383,1.938 0,1.071 0.8672,1.939 1.9383,1.939 1.071,0 1.9375,-0.868 1.9375,-1.939 v 0"
         style="fill:#3f60b6;fill-opacity:1;fill-rule:nonzero;stroke:none;stroke-width:0.1"
         id="path54"
         inkscape:connector-curvature="0" /><path
         d="m 90.712324,103.1865 c 0,-1.07 -0.8664,-1.938 -1.9375,-1.938 -1.0703,0 -1.9375,0.868 -1.9375,1.938 0,1.071 0.8672,1.939 1.9375,1.939 1.0711,0 1.9375,-0.868 1.9375,-1.939 v 0"
         style="fill:#3f60b6;fill-opacity:1;fill-rule:nonzero;stroke:none;stroke-width:0.1"
         id="path56"
         inkscape:connector-curvature="0" /><path
         d="m 94.770924,101.1575 c 0,-1.07 -0.8672,-1.937996 -1.9375,-1.937996 -1.0715,0 -1.9375,0.867996 -1.9375,1.937996 0,1.07 0.866,1.939 1.9375,1.939 1.0703,0 1.9375,-0.869 1.9375,-1.939 v 0"
         style="fill:#3f60b6;fill-opacity:1;fill-rule:nonzero;stroke:none;stroke-width:0.1"
         id="path58"
         inkscape:connector-curvature="0" /><path
         d="m 98.831024,92.613404 c 0,-1.0703 -0.868,-1.9379 -1.939,-1.9379 -1.0715,0 -1.9399,0.8676 -1.9399,1.9379 0,1.0704 0.8684,1.9383 1.9399,1.9383 1.071,0 1.939,-0.8679 1.939,-1.9383 v 0"
         style="fill:#3f60b6;fill-opacity:1;fill-rule:nonzero;stroke:none;stroke-width:0.1"
         id="path60"
         inkscape:connector-curvature="0" /><path
         d="m 102.88802,85.137304 c 0,-1.0703 -0.867,-1.9375 -1.938,-1.9375 -1.069996,0 -1.936996,0.8672 -1.936996,1.9375 0,1.0715 0.867,1.9386 1.936996,1.9386 1.071,0 1.938,-0.8671 1.938,-1.9386 v 0"
         style="fill:#3f60b6;fill-opacity:1;fill-rule:nonzero;stroke:none;stroke-width:0.1"
         id="path62"
         inkscape:connector-curvature="0" /><path
         d="m 106.94602,83.001704 c 0,-1.0715 -0.867,-1.9387 -1.937,-1.9387 -1.071,0 -1.938,0.8672 -1.938,1.9387 0,1.0711 0.867,1.9383 1.938,1.9383 1.07,0 1.937,-0.8672 1.937,-1.9383 v 0"
         style="fill:#3f60b6;fill-opacity:1;fill-rule:nonzero;stroke:none;stroke-width:0.1"
         id="path64"
         inkscape:connector-curvature="0" /><path
         d="m 111.00502,86.205604 c 0,-1.0722 -0.867,-1.9394 -1.938,-1.9394 -1.072,0 -1.938,0.8672 -1.938,1.9394 0,1.0703 0.866,1.9379 1.938,1.9379 1.071,0 1.938,-0.8676 1.938,-1.9379 v 0"
         style="fill:#3f60b6;fill-opacity:1;fill-rule:nonzero;stroke:none;stroke-width:0.1"
         id="path66"
         inkscape:connector-curvature="0" /><path
         d="m 114.95602,100.0895 c 0,-1.069996 -0.867,-1.938596 -1.937,-1.938596 -1.072,0 -1.938,0.8686 -1.938,1.938596 0,1.07 0.866,1.938 1.938,1.938 1.07,0 1.937,-0.868 1.937,-1.938 v 0"
         style="fill:#3f60b6;fill-opacity:1;fill-rule:nonzero;stroke:none;stroke-width:0.1"
         id="path68"
         inkscape:connector-curvature="0" /><path
         d="m 119.01502,106.3905 c 0,-1.07 -0.867,-1.938 -1.938,-1.938 -1.072,0 -1.937,0.868 -1.937,1.938 0,1.071 0.865,1.939 1.937,1.939 1.071,0 1.938,-0.868 1.938,-1.939 v 0"
         style="fill:#3f60b6;fill-opacity:1;fill-rule:nonzero;stroke:none;stroke-width:0.1"
         id="path70"
         inkscape:connector-curvature="0" /><path
         d="m 123.07302,100.0895 c 0,-1.069996 -0.867,-1.938596 -1.937,-1.938596 -1.071,0 -1.94,0.8686 -1.94,1.938596 0,1.07 0.869,1.938 1.94,1.938 1.07,0 1.937,-0.868 1.937,-1.938 v 0"
         style="fill:#3f60b6;fill-opacity:1;fill-rule:nonzero;stroke:none;stroke-width:0.1"
         id="path72"
         inkscape:connector-curvature="0" /><path
         d="m 127.13202,91.545504 c 0,-1.0707 -0.867,-1.9383 -1.938,-1.9383 -1.072,0 -1.938,0.8676 -1.938,1.9383 0,1.0703 0.866,1.9386 1.938,1.9386 1.071,0 1.938,-0.8683 1.938,-1.9386 v 0"
         style="fill:#3f60b6;fill-opacity:1;fill-rule:nonzero;stroke:none;stroke-width:0.1"
         id="path74"
         inkscape:connector-curvature="0" /><path
         d="m 131.19102,86.205604 c 0,-1.0722 -0.868,-1.9394 -1.938,-1.9394 -1.072,0 -1.939,0.8672 -1.939,1.9394 0,1.0703 0.867,1.9379 1.939,1.9379 1.07,0 1.938,-0.8676 1.938,-1.9379 v 0"
         style="fill:#3f60b6;fill-opacity:1;fill-rule:nonzero;stroke:none;stroke-width:0.1"
         id="path76"
         inkscape:connector-curvature="0" /><path
         d="m 135.24902,84.068904 c 0,-1.0703 -0.867,-1.9375 -1.938,-1.9375 -1.072,0 -1.939,0.8672 -1.939,1.9375 0,1.0703 0.867,1.9375 1.939,1.9375 1.071,0 1.938,-0.8672 1.938,-1.9375 v 0"
         style="fill:#3f60b6;fill-opacity:1;fill-rule:nonzero;stroke:none;stroke-width:0.1"
         id="path78"
         inkscape:connector-curvature="0" /><path
         d="m 139.30702,78.729104 c 0,-1.0703 -0.867,-1.9375 -1.939,-1.9375 -1.07,0 -1.937,0.8672 -1.937,1.9375 0,1.0703 0.867,1.9375 1.937,1.9375 1.072,0 1.939,-0.8672 1.939,-1.9375 v 0"
         style="fill:#3f60b6;fill-opacity:1;fill-rule:nonzero;stroke:none;stroke-width:0.1"
         id="path80"
         inkscape:connector-curvature="0" /><path
         d="m 143.36402,74.457604 c 0,-1.0703 -0.865,-1.9395 -1.937,-1.9395 -1.07,0 -1.938,0.8692 -1.938,1.9395 0,1.0715 0.868,1.9394 1.938,1.9394 1.072,0 1.937,-0.8679 1.937,-1.9394 v 0"
         style="fill:#3f60b6;fill-opacity:1;fill-rule:nonzero;stroke:none;stroke-width:0.1"
         id="path82"
         inkscape:connector-curvature="0" /><path
         d="m 147.42402,71.254504 c 0,-1.0723 -0.868,-1.9395 -1.938,-1.9395 -1.071,0 -1.938,0.8672 -1.938,1.9395 0,1.0703 0.867,1.9355 1.938,1.9355 1.07,0 1.938,-0.8652 1.938,-1.9355 v 0"
         style="fill:#3f60b6;fill-opacity:1;fill-rule:nonzero;stroke:none;stroke-width:0.1"
         id="path84"
         inkscape:connector-curvature="0" /><path
         d="m 151.48202,69.117704 c 0,-1.0711 -0.867,-1.9394 -1.938,-1.9394 -1.07,0 -1.937,0.8683 -1.937,1.9394 0,1.0703 0.867,1.9395 1.937,1.9395 1.071,0 1.938,-0.8692 1.938,-1.9395 v 0"
         style="fill:#3f60b6;fill-opacity:1;fill-rule:nonzero;stroke:none;stroke-width:0.1"
         id="path86"
         inkscape:connector-curvature="0" /><path
         d="m 155.54002,76.594304 c 0,-1.0711 -0.867,-1.9383 -1.937,-1.9383 -1.072,0 -1.938,0.8672 -1.938,1.9383 0,1.0703 0.866,1.9367 1.938,1.9367 1.07,0 1.937,-0.8664 1.937,-1.9367 v 0"
         style="fill:#3f60b6;fill-opacity:1;fill-rule:nonzero;stroke:none;stroke-width:0.1"
         id="path88"
         inkscape:connector-curvature="0" /><path
         d="m 159.59902,88.341604 c 0,-1.0703 -0.867,-1.9387 -1.938,-1.9387 -1.071,0 -1.938,0.8684 -1.938,1.9387 0,1.0703 0.867,1.9382 1.938,1.9382 1.071,0 1.938,-0.8679 1.938,-1.9382 v 0"
         style="fill:#3f60b6;fill-opacity:1;fill-rule:nonzero;stroke:none;stroke-width:0.1"
         id="path90"
         inkscape:connector-curvature="0" /><path
         d="m 163.65702,90.477104 c 0,-1.0695 -0.867,-1.9379 -1.937,-1.9379 -1.072,0 -1.938,0.8684 -1.938,1.9379 0,1.0711 0.866,1.9391 1.938,1.9391 1.07,0 1.937,-0.868 1.937,-1.9391 v 0"
         style="fill:#3f60b6;fill-opacity:1;fill-rule:nonzero;stroke:none;stroke-width:0.1"
         id="path92"
         inkscape:connector-curvature="0" /><path
         d="m 167.71602,85.137304 c 0,-1.0703 -0.867,-1.9375 -1.938,-1.9375 -1.071,0 -1.939,0.8672 -1.939,1.9375 0,1.0715 0.868,1.9386 1.939,1.9386 1.071,0 1.938,-0.8671 1.938,-1.9386 v 0"
         style="fill:#3f60b6;fill-opacity:1;fill-rule:nonzero;stroke:none;stroke-width:0.1"
         id="path94"
         inkscape:connector-curvature="0" /><path
         d="m 171.77402,80.865004 c 0,-1.0715 -0.867,-1.9387 -1.938,-1.9387 -1.071,0 -1.938,0.8672 -1.938,1.9387 0,1.0711 0.867,1.9383 1.938,1.9383 1.071,0 1.938,-0.8672 1.938,-1.9383 v 0"
         style="fill:#3f60b6;fill-opacity:1;fill-rule:nonzero;stroke:none;stroke-width:0.1"
         id="path96"
         inkscape:connector-curvature="0" /><path
         d="m 175.83302,75.525204 c 0,-1.0715 -0.868,-1.9387 -1.939,-1.9387 -1.071,0 -1.938,0.8672 -1.938,1.9387 0,1.0711 0.867,1.9382 1.938,1.9382 1.071,0 1.939,-0.8671 1.939,-1.9382 v 0"
         style="fill:#3f60b6;fill-opacity:1;fill-rule:nonzero;stroke:none;stroke-width:0.1"
         id="path98"
         inkscape:connector-curvature="0" /><path
         d="m 179.89002,75.525204 c 0,-1.0715 -0.865,-1.9387 -1.938,-1.9387 -1.07,0 -1.937,0.8672 -1.937,1.9387 0,1.0711 0.867,1.9382 1.937,1.9382 1.073,0 1.938,-0.8671 1.938,-1.9382 v 0"
         style="fill:#3f60b6;fill-opacity:1;fill-rule:nonzero;stroke:none;stroke-width:0.1"
         id="path100"
         inkscape:connector-curvature="0" /><path
         d="m 183.94902,88.341604 c 0,-1.0703 -0.867,-1.9387 -1.938,-1.9387 -1.07,0 -1.938,0.8684 -1.938,1.9387 0,1.0703 0.868,1.9382 1.938,1.9382 1.071,0 1.938,-0.8679 1.938,-1.9382 v 0"
         style="fill:#3f60b6;fill-opacity:1;fill-rule:nonzero;stroke:none;stroke-width:0.1"
         id="path102"
         inkscape:connector-curvature="0" /><path
         d="m 188.00702,125.6155 c 0,-1.071 -0.867,-1.94 -1.938,-1.94 -1.07,0 -1.937,0.869 -1.937,1.94 0,1.07 0.867,1.937 1.937,1.937 1.071,0 1.938,-0.867 1.938,-1.937 v 0"
         style="fill:#3f60b6;fill-opacity:1;fill-rule:nonzero;stroke:none;stroke-width:0.1"
         id="path104"
         inkscape:connector-curvature="0" /><path
         d="m 192.06702,128.8185 c 0,-1.07 -0.869,-1.938 -1.939,-1.938 -1.071,0 -1.937,0.868 -1.937,1.938 0,1.071 0.866,1.939 1.937,1.939 1.07,0 1.939,-0.868 1.939,-1.939 v 0"
         style="fill:#3f60b6;fill-opacity:1;fill-rule:nonzero;stroke:none;stroke-width:0.1"
         id="path106"
         inkscape:connector-curvature="0" /><path
         d="m 196.12402,121.3425 c 0,-1.07 -0.867,-1.938 -1.937,-1.938 -1.071,0 -1.939,0.868 -1.939,1.938 0,1.07 0.868,1.939 1.939,1.939 1.07,0 1.937,-0.869 1.937,-1.939 v 0"
         style="fill:#3f60b6;fill-opacity:1;fill-rule:nonzero;stroke:none;stroke-width:0.1"
         id="path108"
         inkscape:connector-curvature="0" /><path
         d="m 200.07602,112.7985 c 0,-1.07 -0.867,-1.939 -1.938,-1.939 -1.07,0 -1.938,0.869 -1.938,1.939 0,1.071 0.868,1.938 1.938,1.938 1.071,0 1.938,-0.867 1.938,-1.938 v 0"
         style="fill:#3f60b6;fill-opacity:1;fill-rule:nonzero;stroke:none;stroke-width:0.1"
         id="path110"
         inkscape:connector-curvature="0" /><path
         d="m 204.13402,105.3225 c 0,-1.07 -0.867,-1.938 -1.938,-1.938 -1.07,0 -1.937,0.868 -1.937,1.938 0,1.07 0.867,1.939 1.937,1.939 1.071,0 1.938,-0.869 1.938,-1.939 v 0"
         style="fill:#3f60b6;fill-opacity:1;fill-rule:nonzero;stroke:none;stroke-width:0.1"
         id="path112"
         inkscape:connector-curvature="0" /><path
         d="m 208.19302,92.613404 c 0,-1.0703 -0.868,-1.9379 -1.938,-1.9379 -1.071,0 -1.937,0.8676 -1.937,1.9379 0,1.0704 0.866,1.9383 1.937,1.9383 1.07,0 1.938,-0.8679 1.938,-1.9383 v 0"
         style="fill:#3f60b6;fill-opacity:1;fill-rule:nonzero;stroke:none;stroke-width:0.1"
         id="path114"
         inkscape:connector-curvature="0" /><text
         transform="scale(1,-1)"
         y="-150.33086"
         x="10.7127"
         id="text134-8"
         style="font-variant:normal;font-weight:normal;font-size:8px;font-family:ArialMT;-inkscape-font-specification:ArialMT;writing-mode:lr-tb;fill:#3f60b6;fill-opacity:1;fill-rule:nonzero;stroke:none;stroke-width:1"><tspan
           y="-150.33086"
           x="10.7127"
           id="tspan132-8"
           sodipodi:role="line"
           style="font-style:normal;font-variant:normal;font-weight:normal;font-stretch:normal;font-family:sans-serif;-inkscape-font-specification:sans-serif;stroke-width:1">12</tspan></text><text
         transform="scale(1,-1)"
         y="-130.23618"
         x="10.443169"
         id="text134-8-0"
         style="font-variant:normal;font-weight:normal;font-size:8px;font-family:ArialMT;-inkscape-font-specification:ArialMT;writing-mode:lr-tb;fill:#3f60b6;fill-opacity:1;fill-rule:nonzero;stroke:none;stroke-width:1"><tspan
           y="-130.23618"
           x="10.443169"
           id="tspan132-8-9"
           sodipodi:role="line"
           style="font-style:normal;font-variant:normal;font-weight:normal;font-stretch:normal;font-family:sans-serif;-inkscape-font-specification:sans-serif;stroke-width:1">10</tspan></text><text
         transform="scale(1,-1)"
         y="-106.97246"
         x="15.548637"
         id="text134-8-6"
         style="font-variant:normal;font-weight:normal;font-size:8px;font-family:ArialMT;-inkscape-font-specification:ArialMT;writing-mode:lr-tb;fill:#3f60b6;fill-opacity:1;fill-rule:nonzero;stroke:none;stroke-width:1"><tspan
           y="-106.97246"
           x="15.548637"
           id="tspan132-8-3"
           sodipodi:role="line"
           style="font-style:normal;font-variant:normal;font-weight:normal;font-stretch:normal;font-family:sans-serif;-inkscape-font-specification:sans-serif;stroke-width:1">8</tspan></text><text
         transform="scale(1,-1)"
         y="-87.066399"
         x="15.505669"
         id="text134-8-8"
         style="font-variant:normal;font-weight:normal;font-size:8px;font-family:ArialMT;-inkscape-font-specification:ArialMT;writing-mode:lr-tb;fill:#3f60b6;fill-opacity:1;fill-rule:nonzero;stroke:none;stroke-width:1"><tspan
           y="-87.066399"
           x="15.505669"
           id="tspan132-8-5"
           sodipodi:role="line"
           style="font-style:normal;font-variant:normal;font-weight:normal;font-stretch:normal;font-family:sans-serif;-inkscape-font-specification:sans-serif;stroke-width:1">6</tspan></text><text
         transform="scale(1,-1)"
         y="-66.201012"
         x="15.450981"
         id="text134-8-61"
         style="font-variant:normal;font-weight:normal;font-size:8px;font-family:ArialMT;-inkscape-font-specification:ArialMT;writing-mode:lr-tb;fill:#3f60b6;fill-opacity:1;fill-rule:nonzero;stroke:none;stroke-width:1"><tspan
           y="-66.201012"
           x="15.450981"
           id="tspan132-8-1"
           sodipodi:role="line"
           style="font-style:normal;font-variant:normal;font-weight:normal;font-stretch:normal;font-family:sans-serif;-inkscape-font-specification:sans-serif;stroke-width:1">4</tspan></text><text
         transform="scale(1,-1)"
         y="-45.575462"
         x="15.802544"
         id="text134-8-5"
         style="font-variant:normal;font-weight:normal;font-size:8px;font-family:ArialMT;-inkscape-font-specification:ArialMT;writing-mode:lr-tb;fill:#3f60b6;fill-opacity:1;fill-rule:nonzero;stroke:none;stroke-width:1"><tspan
           y="-45.575462"
           x="15.802544"
           id="tspan132-8-98"
           sodipodi:role="line"
           style="font-style:normal;font-variant:normal;font-weight:normal;font-stretch:normal;font-family:sans-serif;-inkscape-font-specification:sans-serif;stroke-width:1">2</tspan></text><text
         transform="scale(1,-1)"
         y="-23.271082"
         x="15.533012"
         id="text134-8-4"
         style="font-variant:normal;font-weight:normal;font-size:8px;font-family:ArialMT;-inkscape-font-specification:ArialMT;writing-mode:lr-tb;fill:#3f60b6;fill-opacity:1;fill-rule:nonzero;stroke:none;stroke-width:1"><tspan
           y="-23.271082"
           x="15.533012"
           id="tspan132-8-8"
           sodipodi:role="line"
           style="font-style:normal;font-variant:normal;font-weight:normal;font-stretch:normal;font-family:sans-serif;-inkscape-font-specification:sans-serif;stroke-width:1">0</tspan></text><text
         transform="scale(1,-1)"
         y="-12.682545"
         x="12.427745"
         id="text134-8-1"
         style="font-variant:normal;font-weight:normal;font-size:7.68291px;font-family:ArialMT;-inkscape-font-specification:ArialMT;writing-mode:lr-tb;fill:#3f60b6;fill-opacity:1;fill-rule:nonzero;stroke:none;stroke-width:0.960363"><tspan
           y="-12.682545"
           x="12.427745"
           id="tspan132-8-0"
           sodipodi:role="line"
           style="font-style:normal;font-variant:normal;font-weight:normal;font-stretch:normal;font-family:sans-serif;-inkscape-font-specification:sans-serif;stroke-width:0.960363">1970</tspan></text><text
         transform="scale(1,-1)"
         y="-12.682545"
         x="33.510132"
         id="text134-8-3"
         style="font-variant:normal;font-weight:normal;font-size:7.68291px;font-family:ArialMT;-inkscape-font-specification:ArialMT;writing-mode:lr-tb;fill:#3f60b6;fill-opacity:1;fill-rule:nonzero;stroke:none;stroke-width:0.960363"><tspan
           y="-12.682545"
           x="33.510132"
           id="tspan132-8-04"
           sodipodi:role="line"
           style="font-style:normal;font-variant:normal;font-weight:normal;font-stretch:normal;font-family:sans-serif;-inkscape-font-specification:sans-serif;stroke-width:0.960363">1975</tspan></text><text
         transform="scale(1,-1)"
         y="-12.682545"
         x="54.431213"
         id="text134-8-44"
         style="font-variant:normal;font-weight:normal;font-size:7.68291px;font-family:ArialMT;-inkscape-font-specification:ArialMT;writing-mode:lr-tb;fill:#3f60b6;fill-opacity:1;fill-rule:nonzero;stroke:none;stroke-width:0.960363"><tspan
           y="-12.682545"
           x="54.431213"
           id="tspan132-8-4"
           sodipodi:role="line"
           style="font-style:normal;font-variant:normal;font-weight:normal;font-stretch:normal;font-family:sans-serif;-inkscape-font-specification:sans-serif;stroke-width:0.960363">1980</tspan></text><text
         transform="scale(1,-1)"
         y="-12.682545"
         x="75.513611"
         id="text134-8-7"
         style="font-variant:normal;font-weight:normal;font-size:7.68291px;font-family:ArialMT;-inkscape-font-specification:ArialMT;writing-mode:lr-tb;fill:#3f60b6;fill-opacity:1;fill-rule:nonzero;stroke:none;stroke-width:0.960363"><tspan
           y="-12.682545"
           x="75.513611"
           id="tspan132-8-6"
           sodipodi:role="line"
           style="font-style:normal;font-variant:normal;font-weight:normal;font-stretch:normal;font-family:sans-serif;-inkscape-font-specification:sans-serif;stroke-width:0.960363">1985</tspan></text><text
         transform="scale(1,-1)"
         y="-12.682545"
         x="96.434685"
         id="text134-8-31"
         style="font-variant:normal;font-weight:normal;font-size:7.68291px;font-family:ArialMT;-inkscape-font-specification:ArialMT;writing-mode:lr-tb;fill:#3f60b6;fill-opacity:1;fill-rule:nonzero;stroke:none;stroke-width:0.960363"><tspan
           y="-12.682545"
           x="96.434685"
           id="tspan132-8-7"
           sodipodi:role="line"
           style="font-style:normal;font-variant:normal;font-weight:normal;font-stretch:normal;font-family:sans-serif;-inkscape-font-specification:sans-serif;stroke-width:0.960363">1990</tspan></text><text
         transform="scale(1,-1)"
         y="-12.682545"
         x="117.51707"
         id="text134-8-59"
         style="font-variant:normal;font-weight:normal;font-size:7.68291px;font-family:ArialMT;-inkscape-font-specification:ArialMT;writing-mode:lr-tb;fill:#3f60b6;fill-opacity:1;fill-rule:nonzero;stroke:none;stroke-width:0.960363"><tspan
           y="-12.682545"
           x="117.51707"
           id="tspan132-8-62"
           sodipodi:role="line"
           style="font-style:normal;font-variant:normal;font-weight:normal;font-stretch:normal;font-family:sans-serif;-inkscape-font-specification:sans-serif;stroke-width:0.960363">1995</tspan></text><text
         transform="scale(1,-1)"
         y="-12.682545"
         x="138.71951"
         id="text134-8-17"
         style="font-variant:normal;font-weight:normal;font-size:7.68291px;font-family:ArialMT;-inkscape-font-specification:ArialMT;writing-mode:lr-tb;fill:#3f60b6;fill-opacity:1;fill-rule:nonzero;stroke:none;stroke-width:0.960363"><tspan
           y="-12.682545"
           x="138.71951"
           id="tspan132-8-85"
           sodipodi:role="line"
           style="font-style:normal;font-variant:normal;font-weight:normal;font-stretch:normal;font-family:sans-serif;-inkscape-font-specification:sans-serif;stroke-width:0.960363">2000</tspan></text><text
         transform="scale(1,-1)"
         y="-12.682545"
         x="160.08327"
         id="text134-8-74"
         style="font-variant:normal;font-weight:normal;font-size:7.68291px;font-family:ArialMT;-inkscape-font-specification:ArialMT;writing-mode:lr-tb;fill:#3f60b6;fill-opacity:1;fill-rule:nonzero;stroke:none;stroke-width:0.960363"><tspan
           y="-12.682545"
           x="160.08327"
           id="tspan132-8-18"
           sodipodi:role="line"
           style="font-style:normal;font-variant:normal;font-weight:normal;font-stretch:normal;font-family:sans-serif;-inkscape-font-specification:sans-serif;stroke-width:0.960363">2005</tspan></text><text
         transform="scale(1,-1)"
         y="-12.682545"
         x="181.28569"
         id="text134-8-597"
         style="font-variant:normal;font-weight:normal;font-size:7.68291px;font-family:ArialMT;-inkscape-font-specification:ArialMT;writing-mode:lr-tb;fill:#3f60b6;fill-opacity:1;fill-rule:nonzero;stroke:none;stroke-width:0.960363"><tspan
           y="-12.682545"
           x="181.28569"
           id="tspan132-8-53"
           sodipodi:role="line"
           style="font-style:normal;font-variant:normal;font-weight:normal;font-stretch:normal;font-family:sans-serif;-inkscape-font-specification:sans-serif;stroke-width:0.960363">2010</tspan></text><text
         transform="scale(1,-1)"
         y="-12.682545"
         x="202.64943"
         id="text134-8-88"
         style="font-variant:normal;font-weight:normal;font-size:7.68291px;font-family:ArialMT;-inkscape-font-specification:ArialMT;writing-mode:lr-tb;fill:#3f60b6;fill-opacity:1;fill-rule:nonzero;stroke:none;stroke-width:0.960363"><tspan
           y="-12.682545"
           x="202.64943"
           id="tspan132-8-31"
           sodipodi:role="line"
           style="font-style:normal;font-variant:normal;font-weight:normal;font-stretch:normal;font-family:sans-serif;-inkscape-font-specification:sans-serif;stroke-width:0.960363">2015</tspan></text></g></g></svg>
